<svg xmlns="http://www.w3.org/2000/svg" xmlns:xlink="http://www.w3.org/1999/xlink" width="73.119" height="55.861" viewBox="0 0 73.119 55.861">
  <defs>
    <clipPath id="clip-path">
      <rect id="Rectangle_225" data-name="Rectangle 225" width="73.119" height="55.861" fill="#414142"/>
    </clipPath>
  </defs>
  <g id="Group_412" data-name="Group 412" transform="translate(-3335 -3658)">
    <g id="Group_406" data-name="Group 406" transform="translate(3335 3658)">
      <g id="Group_405" data-name="Group 405" clip-path="url(#clip-path)">
        <path id="Path_508" data-name="Path 508" d="M69.2,51.22H66.306c.167,1.213.377,2.29.434,3.376.021.409-.311.837-.482,1.256-.278-.352-.706-.667-.8-1.063-.227-.924-.257-1.9-.452-2.829-.057-.274-.392-.692-.609-.7-1.942-.055-3.887-.032-5.973-.032,0,1.123.025,2.14-.01,3.154-.02.569.271,1.466-.691,1.436-.94-.029-.615-.921-.638-1.488-.04-.984-.011-1.971-.011-3.1-2.079,0-4.056-.022-6.032.034-.2.006-.5.459-.558.745-.195.972-.25,1.974-.47,2.939-.077.339-.475.605-.726.9-.193-.365-.567-.741-.547-1.095.061-1.128.268-2.249.43-3.459H45.133c.153,1.12.361,2.195.418,3.279a3.554,3.554,0,0,1-.466,1.268c-.28-.348-.712-.659-.81-1.052-.23-.923-.263-1.893-.458-2.827-.058-.276-.387-.7-.6-.706-1.942-.055-3.886-.032-5.984-.032,0,1.231,0,2.356,0,3.481,0,.52.043,1.188-.685,1.086-.269-.038-.6-.719-.633-1.129-.088-1.09-.03-2.193-.03-3.436-2.071,0-4.048-.022-6.023.034-.2.006-.512.458-.568.744-.2,1.009-.264,2.045-.482,3.048-.066.3-.462.534-.707.8-.2-.328-.586-.668-.566-.982.072-1.165.278-2.321.446-3.57H23.7c.149,1.073.309,2.109.431,3.15.061.521.314,1.226-.464,1.374-.805.153-.79-.575-.871-1.108-.138-.909-.212-1.832-.414-2.725-.066-.291-.439-.723-.683-.731-1.906-.061-3.814-.034-5.9-.034,0,1.252.053,2.414-.031,3.567-.027.369-.417.71-.641,1.065-.226-.351-.618-.689-.645-1.055-.085-1.132-.031-2.273-.031-3.568-2.082,0-4.095-.018-6.1.032-.173,0-.434.434-.484.7-.18.938-.222,1.907-.452,2.83-.1.393-.532.7-.812,1.05a3.573,3.573,0,0,1-.463-1.265c.053-1.056.258-2.105.42-3.288l-2.55-.134V19.32a26.664,26.664,0,0,1-2.827-.03c-.412-.045-.787-.417-1.179-.64.39-.225.778-.643,1.17-.646,6.661-.046,13.322-.042,19.984-.047,1.391,0,2.783,0,4.256,0V15.691a3.974,3.974,0,0,1-1.837-4.96,1.154,1.154,0,0,1,.868-.481c1.138-.057,2.281-.017,3.421-.029.71-.007.99.353.968,1.031a11.066,11.066,0,0,0,.008,1.435c.149,1.524-.378,2.592-1.958,2.954v2.225h5.235a5.078,5.078,0,0,0-.044-1.682c-.151-.407-.748-.625-1.048-1.005a3.464,3.464,0,0,1-.849-1.465c-.465-3.4-.363-3.49,3.082-3.49,2.2,0,2.2,0,2.2,2.217,0,2.24-.15,2.489-1.92,3.225v2.219h5.254V15.748a3.9,3.9,0,0,1-1.875-4.892,1.073,1.073,0,0,1,.773-.6,26.743,26.743,0,0,1,3.638.01,1.263,1.263,0,0,1,.86.843,11.774,11.774,0,0,1,.02,2.532,2.18,2.18,0,0,1-1.92,1.98v2.232h6.165c.019-.36.058-.745.058-1.13,0-2.613-.048-5.227.028-7.838a9,9,0,0,1,.63-2.154,5.154,5.154,0,0,0,.328-1.241c.043-1.323-.006-2.65.024-3.974C47.543.344,47.95,0,49.184,0s1.658.357,1.683,1.5c.022.993.014,1.987,0,2.981a3.822,3.822,0,0,0,.674,2.805,2.5,2.5,0,0,1,.3,1.473c.027,2.613.079,5.228-.02,7.837-.044,1.173.352,1.383,1.428,1.375,6.072-.044,12.144-.011,18.217,0A2.468,2.468,0,0,1,72.34,18a3.5,3.5,0,0,1,.78.608c-.269.237-.522.654-.81.679-.981.085-1.975.033-3.113.033ZM5.406,19.387V49.778H6.78L9.271,32.026a2.012,2.012,0,0,1-.59-.087c-.33-.2-.638-.444-.954-.669.32-.224.638-.64.96-.643q6.457-.064,12.914,0c.3,0,.6.377.9.579a10.647,10.647,0,0,1-.88.73c-.127.087-.339.049-.655.083L23.475,49.8H28.21L30.7,32.028l-.369.168c-.387-.325-1.1-.657-1.1-.973.019-.851.833-.614,1.379-.616q5.961-.023,11.921,0c.547,0,1.334-.225,1.379.656.042.835-.73.623-1.233.721-.061.012-.111.085-.256.2l2.484,17.63h4.482l2.5-17.8c-.32-.034-.488,0-.6-.072-.33-.2-.638-.445-.954-.671.322-.223.641-.637.965-.64q6.456-.065,12.914,0c.3,0,.6.377.906.578a11.359,11.359,0,0,1-.887.734c-.129.088-.337.059-.649.1l2.5,17.756h1.614V19.387ZM57,49.826v-12.1H52.471l-1.695,12.1ZM14.387,37.751H9.845L8.162,49.8h6.225ZM43.522,49.8l-1.69-12.041H37.314V49.8ZM35.834,37.737h-4.55L29.6,49.772h6.238ZM58.479,49.791H64.71l-1.7-12.057H58.479Zm-42.6-12.073V49.792h6.212l-1.7-12.074Zm-5.8-1.473h4.3v-4.3c-1.088,0-2.108-.04-3.12.029a.962.962,0,0,0-.669.615c-.219,1.182-.344,2.382-.513,3.652m46.9.02V31.99H53.288c-.2,1.423-.4,2.815-.6,4.275ZM35.817,31.994H32.1l-.6,4.263h4.317Zm1.508.01v4.244h4.3L41.008,32Zm-21.442-.009V36.26h4.3l-.617-4.265Zm42.583,4.27H62.8l-.6-4.24H58.467ZM50.428,10.416H47.893V11.9c0,2.344,0,2.344,2.386,2.015.031,0,.058-.043.15-.114Zm.121-1.489c-.087-.44-.043-.85-.227-1.047a4,4,0,0,1-.808-3.093c.02-.915.018-1.831-.01-2.746a2.247,2.247,0,0,0-.241-.658l-.382.063A29.232,29.232,0,0,1,48.845,5.2,30.62,30.62,0,0,1,47.9,8.927Zm-2.607,8.919h2.48V15.4h-2.48Zm-23.287-6.23a7.166,7.166,0,0,0,.664,2.429A1.87,1.87,0,0,0,27.1,14a6.805,6.805,0,0,0,.487-2.38Zm6.677.024a6.922,6.922,0,0,0,.585,2.387,1.872,1.872,0,0,0,1.777-.013,6.792,6.792,0,0,0,.546-2.374Zm6.725-.019a7.237,7.237,0,0,0,.651,2.427,1.869,1.869,0,0,0,1.763-.055,6.812,6.812,0,0,0,.467-2.371Z" transform="translate(0 0)" fill="#414142"/>
        <path id="Path_509" data-name="Path 509" d="M102.586,120.444q8.105,0,16.21,0a2.744,2.744,0,0,1,.981.045c.248.1.566.425.56.642s-.341.493-.593.621a1.827,1.827,0,0,1-.761.035H86.013a2.192,2.192,0,0,1-.87-.043c-.249-.117-.57-.426-.564-.642s.34-.507.6-.619a2.308,2.308,0,0,1,.872-.039h16.541" transform="translate(-65.902 -93.83)" fill="#414142"/>
      </g>
    </g>
  </g>
</svg>
