<svg id="Group_409" data-name="Group 409" xmlns="http://www.w3.org/2000/svg" xmlns:xlink="http://www.w3.org/1999/xlink" width="79.915" height="80" viewBox="0 0 79.915 80">
  <defs>
    <clipPath id="clip-path">
      <rect id="Rectangle_230" data-name="Rectangle 230" width="79.915" height="80" fill="#414142"/>
    </clipPath>
  </defs>
  <g id="Group_408" data-name="Group 408" clip-path="url(#clip-path)">
    <path id="Path_516" data-name="Path 516" d="M10.832,80a13.918,13.918,0,0,1-1.8-.124,23.54,23.54,0,0,0-3.08-.179c-.967,0-1.946.04-2.893.078-.5.02-1.007.041-1.508.055l-.155,0a1.607,1.607,0,0,1-1.1-.275A1.747,1.747,0,0,1,0,78.362c.03-26.22.03-52.1,0-76.912A1.646,1.646,0,0,1,.283.315C.5.1.967,0,1.795,0Q13.988.024,26.137.02l37.172,0q7.289,0,14.579,0a4.675,4.675,0,0,1,1.819.2,4.863,4.863,0,0,1,.2,1.862q.005,13.984,0,27.969V49.978q0,13.878,0,27.756a6.573,6.573,0,0,1-.141,1.93,6.923,6.923,0,0,1-2,.145c-.959,0-1.919.009-2.878.018-1.018.009-2.035.018-3.052.018-1.858,0-3.364-.032-4.741-.1a3.765,3.765,0,0,1-2.527-1.028C62.26,75.271,59.222,73.8,54.41,73.8c-.295,0-.593.005-.9.015-4.016.131-8.284.193-13.433.193-3.845,0-7.756-.034-11.54-.068q-3.151-.028-6.3-.05h-.066a4.3,4.3,0,0,0-4.032,1.959A7.945,7.945,0,0,1,10.832,80M7.255,78.67c1.239,0,2.252.036,3.189.114.3.025.591.038.867.038a5.843,5.843,0,0,0,5.675-3.582l.61-1.218H1.231v4.713h.841c.9,0,1.782-.017,2.658-.034.849-.016,1.69-.032,2.525-.032M62.577,75.5c.419.384.8.809,1.164,1.219.847.95,1.578,1.77,2.587,1.851,1.511.12,3.173.177,5.231.177,1.041,0,2.085-.014,3.132-.027s2.092-.027,3.143-.027h.841V74.037H60.984ZM1.228,73.017l4.079-.235-.3-1.016c-.109-.371-.217-.714-.319-1.038A17.863,17.863,0,0,1,4.2,69c-.248-1.209-.176-1.617-.071-1.746s.484-.281,1.711-.288q1.653-.009,3.3-.008l5.236,0c1.983,0,3.857,0,4.146.386.3.405-.26,2.328-.912,4.555L17.3,72.98l1.121,0c.455,0,.895,0,1.323.007.411,0,.812.007,1.206.007.83,0,1.468-.015,2.07-.049a2.012,2.012,0,0,0,1.224-.651,2.934,2.934,0,0,1,.247-.212l.953-.688-.959-.68c-.074-.053-.145-.117-.218-.18a2.218,2.218,0,0,0-1.018-.584l-.043-.008a5.674,5.674,0,0,1-2.039-.583,5.95,5.95,0,0,1-.175-2.174c0-.231.008-.463.016-.695a10.5,10.5,0,0,0-.039-1.722,2.215,2.215,0,0,1,1.352-2.416,7.575,7.575,0,0,0,1.488-1.3,9.526,9.526,0,0,1,.832-.8c.106-.087.216-.179.327-.274a3.271,3.271,0,0,1,1.227-.8c.878-.048,1.825-.069,3.071-.069.5,0,1.007,0,1.511.007s1.015.007,1.522.007c.8,0,1.451-.008,2.06-.026l.153,0a1.571,1.571,0,0,1,1.092.274,1.727,1.727,0,0,1,.265,1.194c-.077,3.414-.041,6.858-.009,9.9.011.948.024,2.245,1.466,2.245a8.149,8.149,0,0,0,1.352-.185l.689-.127V55.582H1.228ZM58.31,53.79q6.673,0,13.346.008c1.047,0,1.33.141,1.4.225.092.1.18.445.071,1.5-.246,2.4-.386,4.547-.429,6.572-.048,2.306-.038,4.559-.027,6.944q.007,1.5.009,3.016v.841h5.921l.1-.727c.023-.167.048-.315.07-.449a5.1,5.1,0,0,0,.094-.846q0-4.6,0-9.2c0-7.25,0-14.747.038-22.118a2.491,2.491,0,0,0-.6-1.857,2.835,2.835,0,0,0-2.139-.606h-.072q-9.771.018-19.542.014-6.728,0-13.456.006a10.208,10.208,0,0,0-1.319.111c-.173.022-.346.045-.514.062l-.756.077v35.5h3.518l-.062-.9c-.062-.9-.132-1.782-.2-2.661-.159-2.009-.308-3.907-.362-5.834-.03-1.086.017-2.209.063-3.3a37.347,37.347,0,0,0,.006-4.489c-.032-.4-.117-1.476.07-1.678.058-.063.312-.208,1.429-.209q6.673-.008,13.345-.008M44.383,70.762l.691.327c.333.157.673.36,1.034.574a5.957,5.957,0,0,0,2.811,1.088c2.753.071,5.7.1,9.291.1,2.376,0,4.752-.014,7.128-.029l2.306-.013a4.417,4.417,0,0,0,4.2-2.873l.546-1.191H45.109ZM5.51,69.024c.415,3,.971,3.811,4.087,3.824q.988,0,1.975,0,.905,0,1.809-.005c2.766-.018,3.657-.928,3.81-3.894l.046-.885H5.378Zm20.653,3.718h8.581V60.187H26.163ZM23.025,63.08c-1.378,1.143-1.16,2.692-1,3.823.044.315.086.612.1.891.04.773,1.017,1.085,1.417,1.085h0A.989.989,0,0,0,24,68.772a1.868,1.868,0,0,0,1.01-1.4c.044-.873.037-1.751.031-2.6,0-.3,0-.6,0-.907v-.675l-1.694-.375Zm21.653,1.8a2.547,2.547,0,0,0,2.817,2.755c3.478-.02,7.078-.03,10.735-.03q5.351,0,10.7.026h0a2.974,2.974,0,0,0,2.26-.754,2.637,2.637,0,0,0,.564-2.108L71.694,64H44.633Zm-.437-3.355.673.336c.193.1.4.227.618.367A3.787,3.787,0,0,0,47.468,63c3.554.039,7.19.059,10.81.059,3.543,0,7.169-.019,10.78-.057a3.857,3.857,0,0,0,1.908-.72c.217-.131.422-.255.614-.346l.755-.358-.926-1.983-.54-.009H44.956Zm.409-5.705a2.55,2.55,0,0,0,2.835,2.623c3.493-.024,7.013-.036,10.8-.036q5.405,0,10.811.029h0a2.761,2.761,0,0,0,2.1-.714,2.6,2.6,0,0,0,.563-2.055l-.056-.781H44.546ZM6.04,47.45c.091.46.188.9.283,1.324a20.464,20.464,0,0,1,.446,2.452c.214,2.25,1.242,3.391,3.057,3.391a6.191,6.191,0,0,0,1.759-.294l.476-.142,1.676-7.735h-7.9Zm14.989-4.716c.187.974.367,1.922.544,2.851.4,2.1.776,4.084,1.178,6.077.592,2.939,3.167,2.939,4.267,2.939.154,0,.309,0,.466-.005l.075,0c1.108-.024,3.171-.068,3.245-2.359.074-2.273.058-4.589.044-6.829-.006-.939-.012-1.882-.012-2.829v-.841h-10Zm9.325-2.025q1.452,0,2.9,0a2.946,2.946,0,0,1,3.134,2.472c1.032,4.033-.021,6.029-3.888,7.365l-.5.174-.4,3.72h7.739v-17.2H1.281V54.428H6.056L5.965,53.5q-.147-1.483-.3-2.943c-.315-3.075-.611-5.979-.812-8.939a2.007,2.007,0,0,1,.546-.78c1.355-.062,2.753-.093,4.27-.093,1.443,0,2.986.028,4.715.086a1.394,1.394,0,0,1,.387.408c-.05,2.334-.2,4.567-.455,6.638-.149,1.225-.4,2.435-.675,3.716-.122.578-.245,1.163-.36,1.757l-.194,1h9.3l-.2-1q-.337-1.7-.661-3.362c-.543-2.774-1.056-5.395-1.618-8.061-.158-.752-.035-.977.006-1.029s.218-.2.905-.2c1.691.012,3.35.014,5.01.014Zm2.9,1.1a4.181,4.181,0,0,0-.537.037l-.733.1v7.546l.976-.158c2.846-.462,2.682-2.57,2.594-3.7a5.224,5.224,0,0,1-.024-.9A2.752,2.752,0,0,0,35,42.5a2.23,2.23,0,0,0-1.745-.692M9.476,45.3c.192,0,.394.016.6.031.246.018.494.036.732.036a2.342,2.342,0,0,0,1.764-.629,2.8,2.8,0,0,0,.616-2.154l-.034-.806H6.5l-.13.684a2.528,2.528,0,0,0,.362,2.182,2.216,2.216,0,0,0,1.826.709,6.515,6.515,0,0,0,.691-.042,2.167,2.167,0,0,1,.231-.011M1.25,36.047H19.631V1.208H1.25Zm19.594,0h18.54V1.244H20.844Zm19.694,0H78.749v-16.5H40.538ZM40.5,18.322H78.718V1.222H40.5Z" transform="translate(0)" fill="#414142"/>
    <path id="Path_517" data-name="Path 517" d="M106.8,20.7a2.969,2.969,0,0,1-.516-.545,71.682,71.682,0,0,1,0-7.758,3.04,3.04,0,0,1,.462-.474,2.231,2.231,0,0,1,.474.537,17,17,0,0,1,.076,2.8c-.011.415-.021.831-.021,1.244,0,.37.013.741.024,1.112a13.434,13.434,0,0,1-.069,2.5,1.858,1.858,0,0,1-.434.58" transform="translate(-61.529 -6.912)" fill="#414142"/>
    <path id="Path_518" data-name="Path 518" d="M81.708,42.288a2.592,2.592,0,0,1-.415-.472c-.121-3.034-.122-6.092,0-9.089a2.63,2.63,0,0,1,.419-.469,2.213,2.213,0,0,1,.527.649,17.908,17.908,0,0,1,.079,2.982c-.012.433-.024.865-.024,1.3,0,.448.011.9.022,1.346a20.241,20.241,0,0,1-.08,3.149,2.344,2.344,0,0,1-.525.608" transform="translate(-47.056 -18.694)" fill="#414142"/>
    <path id="Path_519" data-name="Path 519" d="M106.575,64.373a2.25,2.25,0,0,1-.53-.609,13.545,13.545,0,0,1-.079-2.646c.013-.4.026-.792.026-1.186,0-.376-.011-.753-.023-1.131a13.731,13.731,0,0,1,.071-2.5,1.855,1.855,0,0,1,.426-.555,2.954,2.954,0,0,1,.515.544,69.78,69.78,0,0,1,0,7.624,2.867,2.867,0,0,1-.41.463" transform="translate(-61.392 -32.303)" fill="#414142"/>
    <path id="Path_520" data-name="Path 520" d="M34.706,42.284a2.535,2.535,0,0,1-.414-.479c-.121-3.044-.121-6.1,0-9.089a2.648,2.648,0,0,1,.42-.463,2.216,2.216,0,0,1,.526.661,17.991,17.991,0,0,1,.079,2.981c-.012.433-.024.865-.024,1.3,0,.45.011.9.022,1.354a20.136,20.136,0,0,1-.081,3.141,2.392,2.392,0,0,1-.526.6" transform="translate(-19.82 -18.691)" fill="#414142"/>
  </g>
</svg>
