<svg xmlns="http://www.w3.org/2000/svg" xmlns:xlink="http://www.w3.org/1999/xlink" width="287" height="100" viewBox="0 0 287 100">
  <defs>
    <clipPath id="clip-path">
      <rect id="Rectangle_205" data-name="Rectangle 205" width="287" height="100" transform="translate(968 3618)" fill="#fff"/>
    </clipPath>
    <clipPath id="clip-path-2">
      <rect id="Rectangle_169" data-name="Rectangle 169" width="85.073" height="71.544" fill="#414142"/>
    </clipPath>
  </defs>
  <g id="Mask_Group_16" data-name="Mask Group 16" transform="translate(-968 -3618)" clip-path="url(#clip-path)">
    <g id="Group_316" data-name="Group 316" transform="translate(1069 3647)">
      <g id="Group_315" data-name="Group 315" clip-path="url(#clip-path-2)">
        <path id="Path_317" data-name="Path 317" d="M84.57,99.028a2.806,2.806,0,0,1-.84-.277l-3.945-1.758c-4.174-1.861-8.49-3.784-12.741-5.663a4.1,4.1,0,0,0-1.618-.339q-11.35-.011-22.7-.011-11.577,0-23.152.012a4.288,4.288,0,0,0-1.7.365c-3.8,1.686-7.657,3.413-11.387,5.083Q4.113,97.5,1.739,98.565c-.344.154-.708.287-1.05.406a.754.754,0,0,1-.242.049c-.066,0-.221,0-.373-.334a.474.474,0,0,1,.211-.695,4.39,4.39,0,0,1,.649-.317c.085-.036.169-.072.253-.109l3.106-1.386c4.144-1.85,8.429-3.763,12.653-5.62A1.7,1.7,0,0,0,18.1,88.821c-.019-13.282-.018-26.411,0-39.023a1.7,1.7,0,0,0-1.15-1.74c-3.529-1.56-7.111-3.159-10.575-4.7Q3.513,42.076.653,40.8c-.68-.3-.676-.463-.607-.743.1-.4.3-.453.485-.453a1.373,1.373,0,0,1,.535.134Q4.344,41.2,7.618,42.662L12.3,44.754c1.909.853,3.883,1.735,5.833,2.585a3.744,3.744,0,0,0,1.455.308q10.87.009,21.741.009,12.056,0,24.113-.014a4.572,4.572,0,0,0,1.772-.419c4.155-1.835,8.373-3.716,12.452-5.534l4.08-1.818a2.851,2.851,0,0,1,.818-.278c.087,0,.207.081.508.455v.17l-.191.162a3.491,3.491,0,0,1-.76.548c-5.759,2.594-10.985,4.92-15.979,7.11a1.812,1.812,0,0,0-1.206,1.875c.021,13.744.02,26.421,0,38.756A1.85,1.85,0,0,0,68.182,90.6c5,2.2,10.245,4.54,16.047,7.164a2.75,2.75,0,0,1,.664.523l.18.169v.052c-.31.477-.423.52-.5.52M19.3,89.805h46.47V48.855H19.3Z" transform="translate(0 -27.483)" fill="#414142"/>
        <path id="Path_318" data-name="Path 318" d="M42.5,16.6q-11.525,0-23.047-.02a3.81,3.81,0,0,1-1.7-.427c-3.244-1.726-6.534-3.5-9.715-5.215Q4.37,8.961.7,6.992a1.088,1.088,0,0,1-.69-1.124C.024,4.851.022,3.82.019,2.822c0-.561,0-1.121,0-1.682C.02.119.127.014,1.168.013H63.734Q73.791.014,83.847,0c.752,0,1.045.191,1.232.527V6.206c-.068.074-.136.15-.2.226a2.822,2.822,0,0,1-.652.609c-6.231,3.4-11.756,6.375-16.888,9.1a3.99,3.99,0,0,1-1.785.439c-7.595.014-15.35.021-23.051.021M1.165,1.84c0,.315,0,.625.007.93.008.706.016,1.373-.02,2.035a1.652,1.652,0,0,0,1,1.672q4.082,2.189,8.157,4.393,3.924,2.117,7.851,4.228a3.071,3.071,0,0,0,1.4.363q12.687.011,25.375.011,10.28,0,20.559-.006a2.473,2.473,0,0,0,1.179-.241c5.586-3,11.116-6,16.436-8.9A1.492,1.492,0,0,0,83.86,5.2c.033-.818.029-1.62.024-2.469,0-.294,0-.592,0-.894V1.229H1.165Z" transform="translate(-0.006)" fill="#414142"/>
        <path id="Path_319" data-name="Path 319" d="M64.287,23.045q-11.1,0-22.2-.017a2.966,2.966,0,0,1-1.307-.339c-1.905-1-3.833-2.042-5.7-3.047q-1.637-.884-3.278-1.763c-.7-.375-.739-.551-.658-.865s.194-.442,1-.442q9.72,0,19.434,0H95.715l.423,0c.1,0,.2,0,.306.006.5.024.587.216.638.41a.543.543,0,0,1-.337.714q-2,1.083-4,2.162-.666.359-1.33.721c-1.308.709-2.66,1.443-4,2.13a2.878,2.878,0,0,1-1.237.316q-10.943.014-21.888.015m21.761-1.125a1.551,1.551,0,0,0,.729-.149c1.311-.687,2.633-1.4,3.912-2.1l1.722-.931-.357-.663-.173-.325H34.606l1.767,1.127c1.373.876,2.853,1.72,4.657,2.655a3.31,3.31,0,0,0,1.47.367q13.441.014,26.884.012l16.367,0,.3,0" transform="translate(-21.599 -11.503)" fill="#414142"/>
      </g>
    </g>
  </g>
</svg>
