<svg xmlns="http://www.w3.org/2000/svg" width="81.567" height="71.345" viewBox="0 0 81.567 71.345">
  <g id="Group_400" data-name="Group 400" transform="translate(-6377.219 -345.165)">
    <path id="Path_498" data-name="Path 498" d="M817.839,251.379c1.869.521,3.735,1.059,5.606,1.564q3.606.977,7.228,1.907a.818.818,0,0,1,.739.89c0,.022-.005.044-.009.065q-.026,30.629,0,61.253a.858.858,0,0,1-.7.991c-.023,0-.047.007-.07.009-4.171,1.087-8.345,2.16-12.492,3.331a2.528,2.528,0,0,1-3.3-2.574q.07-32.226.008-64.453a2.86,2.86,0,0,1,1.737-2.986Z" transform="translate(5563 94.389)" fill="none" stroke="#414142" stroke-miterlimit="10" stroke-width="1.2"/>
    <path id="Path_499" data-name="Path 499" d="M895.183,319.819c-1,1.7-1.657,1.962-3.666,1.43-4.039-1.076-8.073-2.16-12.118-3.211-.535-.14-.749-.335-.749-.93q.025-30.654,0-61.3c0-.659.285-.826.815-.966q6.211-1.63,12.412-3.3a2.357,2.357,0,0,0,.34-.162h1.251a3.258,3.258,0,0,1,1.718,1.718Z" transform="translate(5563 94.389)" fill="none" stroke="#414142" stroke-miterlimit="10" stroke-width="1.2"/>
    <path id="Path_500" data-name="Path 500" d="M857.385,320.916V251.927c1.553.409,3.076.8,4.594,1.2,3.688.98,7.368,1.981,11.062,2.936a.94.94,0,0,1,.851,1.023.789.789,0,0,1-.011.083q-.028,29.291-.005,58.58c0,.568-.082.878-.716,1.043-5.1,1.328-10.184,2.7-15.277,4.056a4.841,4.841,0,0,1-.5.063" transform="translate(5563 94.389)" fill="none" stroke="#414142" stroke-miterlimit="10" stroke-width="1.2"/>
    <path id="Path_501" data-name="Path 501" d="M852.618,251.974v68.991c-1.257-.335-2.47-.661-3.688-.982-4.037-1.076-8.073-2.162-12.118-3.216a.758.758,0,0,1-.7-.814.748.748,0,0,1,.01-.081q.026-29.441,0-58.887a.723.723,0,0,1,.584-.84l.061-.008c5.145-1.356,10.285-2.736,15.425-4.1a3.163,3.163,0,0,1,.423-.058" transform="translate(5563 94.389)" fill="none" stroke="#414142" stroke-miterlimit="10" stroke-width="1.2"/>
  </g>
</svg>
