<svg xmlns="http://www.w3.org/2000/svg" xmlns:xlink="http://www.w3.org/1999/xlink" width="287" height="100" viewBox="0 0 287 100">
  <defs>
    <clipPath id="clip-path">
      <rect id="Rectangle_199" data-name="Rectangle 199" width="287" height="100" transform="translate(1271 3174)" fill="#fff"/>
    </clipPath>
    <clipPath id="clip-path-2">
      <rect id="Rectangle_185" data-name="Rectangle 185" width="109.759" height="73.313" fill="#414142"/>
    </clipPath>
  </defs>
  <g id="Mask_Group_14" data-name="Mask Group 14" transform="translate(-1271 -3174)" clip-path="url(#clip-path)">
    <g id="Group_364" data-name="Group 364" transform="translate(1352 3201)">
      <g id="Group_363" data-name="Group 363" clip-path="url(#clip-path-2)">
        <path id="Path_435" data-name="Path 435" d="M1.9,73.312C.1,73.309.1,73.309.1,71.538V1.594L0,0H109.678c.15,0,.045,1.7.045,1.7V71.141a4.763,4.763,0,0,1-.2,1.971,5.083,5.083,0,0,1-2.041.2Zm53.82-1.692h52.3V1.671h-52.3Zm-53.941,0H53.966V1.673H1.782Z" fill="#414142"/>
        <path id="Path_436" data-name="Path 436" d="M152.951,113.351c-.174,0-.7,0-.713-1.139s-.008-2.289-.006-3.433c0,0,0-2.42,0-2.889,0-1.075.007-2.187-.009-3.282-.015-1.044.364-1.16.823-1.2.025,0,.049,0,.073,0,.639,0,.712.8.714,1.143q.014,3.31.006,6.622,0,1.549,0,3.1c0,.946-.387,1.05-.818,1.078-.025,0-.05,0-.074,0" transform="translate(-103.26 -68.788)" fill="#414142"/>
        <path id="Path_437" data-name="Path 437" d="M184.563,113.372c-.384,0-.8-.078-.8-1.017v-1.914q0-3.965,0-7.93c0-1.043.5-1.049.794-1.052h.009c.3,0,.8.01.805,1.023q0,1.73,0,3.461v6.38c0,1.041-.5,1.046-.8,1.049Z" transform="translate(-124.654 -68.823)" fill="#414142"/>
        <g id="Group_376" data-name="Group 376">
          <g id="Group_374" data-name="Group 374">
            <path id="Path_438" data-name="Path 438" d="M237.575,115.2c.2.768.433,1.486.583,2.22a7.331,7.331,0,0,1-.5,4.521,5.136,5.136,0,0,1-3.182,2.876,8.783,8.783,0,0,1-5.522.088,7.218,7.218,0,0,1-4.49-4.276,16.483,16.483,0,0,1-1.287-6.709.415.415,0,0,1,.394-.471c.293-.029.43.167.492.424a13.259,13.259,0,0,0,1.17,3.205,6.794,6.794,0,0,0,3.889,3.51,6.447,6.447,0,0,0,3.681.1,2.881,2.881,0,0,0,2.206-3.26,2.053,2.053,0,0,0-2.182-2.14,8.292,8.292,0,0,0-1.33.06,1.112,1.112,0,0,1-1.044-.363,6.388,6.388,0,0,1-1.73-3.1.854.854,0,0,1,.8-1.079c.873-.09,1.754-.129,2.62-.268a5.118,5.118,0,0,0,1.377-.483,1.045,1.045,0,0,0,.616-1.094,1.2,1.2,0,0,0-.767-1.05,2.406,2.406,0,0,0-1.776-.052c-1,.351-1.988.732-2.961,1.147a1.38,1.38,0,0,1-1.989-.568c-.4-.613-.8-1.222-1.19-1.841a1.293,1.293,0,0,1,.762-2.036q2.555-.631,5.134-1.167a6.431,6.431,0,0,1,2.723.053,4.1,4.1,0,0,1,3.309,3.789,5.261,5.261,0,0,1-2.728,5.433c-.058.036-.117.07-.173.11-.017.012-.023.037-.034.057a2.181,2.181,0,0,0,2.956-.381,21.783,21.783,0,0,0,1.538-2.256c.26-.4.468-.836.711-1.249a4.462,4.462,0,0,1,5.572-2.056,6.292,6.292,0,0,1,4.151,4.274,11.876,11.876,0,0,1,.509,4.836,10.286,10.286,0,0,1-.917,3.8,5.262,5.262,0,0,1-6.521,2.8,4.755,4.755,0,0,1-3.217-3.694,10.281,10.281,0,0,1-.273-2.991c.009-.253.1-.454.367-.5a.414.414,0,0,1,.5.311,3.783,3.783,0,0,0,3.764,2.538,3.99,3.99,0,0,0,3.684-2.85,5.418,5.418,0,0,0-.425-4.311,1.969,1.969,0,0,0-1.927-1.179,1.719,1.719,0,0,0-1.21.565,10.924,10.924,0,0,0-.864,1.1c-.292.422-.563.86-.814,1.308a4.2,4.2,0,0,1-3.961,2.285c-.167,0-.335,0-.5,0m2.32,2.5c.031.2.055.4.092.6.492,2.64,2.184,3.932,4.847,3.635a4.093,4.093,0,0,0,3.5-2.893,11.388,11.388,0,0,0,.238-7.461,5.375,5.375,0,0,0-3.4-3.768,3.624,3.624,0,0,0-4.774,1.624c-.258.444-.484.907-.761,1.338a19.045,19.045,0,0,1-1.5,2.2,3.461,3.461,0,0,1-4.9.172.445.445,0,0,1,.135-.794c.124-.059.253-.1.375-.166a4.49,4.49,0,0,0,2.749-4.963,3.18,3.18,0,0,0-2.653-2.912,5.417,5.417,0,0,0-1.188-.122,26.775,26.775,0,0,0-6.258,1.241.4.4,0,0,0-.232.637c.44.707.9,1.4,1.358,2.1a.4.4,0,0,0,.547.135c.135-.062.267-.129.4-.19a13.654,13.654,0,0,1,3.476-1.215,3.067,3.067,0,0,1,1.931.295,2,2,0,0,1,1.138,1.821,1.93,1.93,0,0,1-1.027,1.81,6.6,6.6,0,0,1-2.783.761c-.529.053-1.061.075-1.624.114.039.159.063.291.1.419a6.086,6.086,0,0,0,1.3,2.152.552.552,0,0,0,.536.194,10.107,10.107,0,0,1,1.366-.054,2.865,2.865,0,0,1,2.88,2.187,5.25,5.25,0,0,1,.088,1.6,3.54,3.54,0,0,1-2.563,3.259,6.91,6.91,0,0,1-3.619.175,7.441,7.441,0,0,1-4.97-3.724c-.077-.128-.151-.257-.226-.385l-.1.043c.225.727.409,1.47.684,2.178a6.708,6.708,0,0,0,3.957,4.242,7.677,7.677,0,0,0,5.365-.063,4.212,4.212,0,0,0,2.405-2.174,6.391,6.391,0,0,0,.6-3.666,7.868,7.868,0,0,0-.979-3.11.418.418,0,0,1,.392-.64c.479-.015.959-.009,1.439-.01a3.183,3.183,0,0,0,2.936-1.68c.16-.276.319-.555.5-.817a16.726,16.726,0,0,1,1.3-1.8,2.671,2.671,0,0,1,4.334.239,5.9,5.9,0,0,1,.57,6.02,4.769,4.769,0,0,1-5.337,2.78,5.207,5.207,0,0,1-2.638-1.362" transform="translate(-151.389 -70.056)" fill="#414142"/>
            <path id="Path_439" data-name="Path 439" d="M265.857,98.324c-4.21-.013-6.349-2.726-7.177-5.665-.015-.055-.021-.112-.036-.167a.418.418,0,0,1,.234-.542.439.439,0,0,1,.566.178c.446.548.871,1.118,1.361,1.624a5,5,0,0,0,2.467,1.539,4.652,4.652,0,0,0,4.241-1.2,8.161,8.161,0,0,0,1.054-1.209c.371-.485.757-.538,1.2-.1q.936.93,1.865,1.866a.7.7,0,0,1,.033,1.133,7.244,7.244,0,0,1-4.779,2.471c-.339.041-.682.052-1.024.078m3.35-4.8a6.4,6.4,0,0,1-3.968,2.66,5.2,5.2,0,0,1-4.553-1.315c2.236,3.555,8.122,3.165,10.236.371l-1.715-1.715" transform="translate(-175.43 -62.342)" fill="#414142"/>
            <path id="Path_440" data-name="Path 440" d="M273.026,87.014a2.092,2.092,0,0,1-.2.354q-.912,1.043-1.838,2.073a.441.441,0,0,1-.756,0c-.634-.686-1.26-1.381-1.891-2.071a.472.472,0,0,1,.009-.724c.625-.68,1.243-1.366,1.869-2.045.276-.3.509-.3.778,0q.928,1.029,1.84,2.071a2.029,2.029,0,0,1,.193.341M270.6,88.553l1.366-1.538L270.6,85.479l-1.4,1.537,1.4,1.538" transform="translate(-181.91 -57.237)" fill="#414142"/>
          </g>
          <g id="Group_375" data-name="Group 375">
            <path id="Path_441" data-name="Path 441" d="M50.022,115.2c.2.768.433,1.486.583,2.22a7.331,7.331,0,0,1-.5,4.521,5.136,5.136,0,0,1-3.182,2.876,8.783,8.783,0,0,1-5.522.088,7.218,7.218,0,0,1-4.49-4.276,16.483,16.483,0,0,1-1.287-6.709.415.415,0,0,1,.394-.471c.293-.029.43.167.492.424a13.259,13.259,0,0,0,1.17,3.205,6.794,6.794,0,0,0,3.889,3.51,6.447,6.447,0,0,0,3.681.1,2.881,2.881,0,0,0,2.206-3.26,2.053,2.053,0,0,0-2.182-2.14,8.292,8.292,0,0,0-1.33.06,1.112,1.112,0,0,1-1.044-.363,6.388,6.388,0,0,1-1.73-3.1.854.854,0,0,1,.8-1.079c.873-.09,1.754-.129,2.62-.268a5.118,5.118,0,0,0,1.377-.483,1.045,1.045,0,0,0,.616-1.094,1.2,1.2,0,0,0-.767-1.05,2.406,2.406,0,0,0-1.776-.052c-1,.351-1.988.732-2.961,1.147a1.38,1.38,0,0,1-1.989-.568c-.4-.613-.8-1.222-1.19-1.841a1.293,1.293,0,0,1,.762-2.036q2.555-.631,5.134-1.167a6.431,6.431,0,0,1,2.723.053,4.1,4.1,0,0,1,3.309,3.789,5.261,5.261,0,0,1-2.728,5.433c-.058.036-.117.07-.173.11-.017.012-.023.037-.034.057a2.181,2.181,0,0,0,2.956-.381,21.784,21.784,0,0,0,1.538-2.256c.26-.4.468-.836.711-1.249a4.462,4.462,0,0,1,5.572-2.056,6.292,6.292,0,0,1,4.151,4.274,11.876,11.876,0,0,1,.509,4.836,10.286,10.286,0,0,1-.917,3.8,5.262,5.262,0,0,1-6.521,2.8,4.755,4.755,0,0,1-3.217-3.694,10.28,10.28,0,0,1-.273-2.991c.009-.253.1-.454.367-.5a.414.414,0,0,1,.5.311,3.783,3.783,0,0,0,3.764,2.538,3.99,3.99,0,0,0,3.684-2.85,5.418,5.418,0,0,0-.425-4.311,1.969,1.969,0,0,0-1.927-1.179,1.719,1.719,0,0,0-1.21.565,10.923,10.923,0,0,0-.864,1.1c-.292.422-.563.86-.814,1.308a4.2,4.2,0,0,1-3.961,2.285c-.167,0-.335,0-.5,0m2.32,2.5c.031.2.055.4.092.6.492,2.64,2.184,3.932,4.847,3.635a4.093,4.093,0,0,0,3.5-2.893,11.388,11.388,0,0,0,.238-7.461,5.375,5.375,0,0,0-3.4-3.768,3.624,3.624,0,0,0-4.774,1.624c-.258.444-.484.907-.761,1.338a19.045,19.045,0,0,1-1.5,2.2,3.461,3.461,0,0,1-4.9.172.445.445,0,0,1,.135-.794c.124-.059.253-.1.375-.166a4.49,4.49,0,0,0,2.749-4.963,3.18,3.18,0,0,0-2.653-2.912,5.417,5.417,0,0,0-1.188-.122,26.775,26.775,0,0,0-6.258,1.241.4.4,0,0,0-.232.637c.44.707.9,1.4,1.358,2.1a.4.4,0,0,0,.547.135c.135-.062.267-.129.4-.19a13.654,13.654,0,0,1,3.476-1.215,3.067,3.067,0,0,1,1.931.295,2,2,0,0,1,1.138,1.821,1.93,1.93,0,0,1-1.027,1.81,6.6,6.6,0,0,1-2.783.761c-.529.053-1.061.075-1.624.114.039.159.063.291.1.419a6.086,6.086,0,0,0,1.3,2.152.551.551,0,0,0,.536.194,10.107,10.107,0,0,1,1.366-.054,2.865,2.865,0,0,1,2.88,2.187,5.25,5.25,0,0,1,.088,1.6,3.54,3.54,0,0,1-2.563,3.259,6.91,6.91,0,0,1-3.619.175,7.441,7.441,0,0,1-4.97-3.724c-.077-.128-.151-.257-.226-.385l-.1.043c.225.727.409,1.47.684,2.178a6.708,6.708,0,0,0,3.957,4.242,7.677,7.677,0,0,0,5.365-.063,4.212,4.212,0,0,0,2.405-2.174,6.391,6.391,0,0,0,.6-3.666,7.868,7.868,0,0,0-.979-3.11.418.418,0,0,1,.392-.64c.479-.015.959-.009,1.439-.01a3.183,3.183,0,0,0,2.936-1.68c.16-.276.319-.555.5-.817a16.72,16.72,0,0,1,1.3-1.8,2.671,2.671,0,0,1,4.334.239,5.9,5.9,0,0,1,.57,6.02,4.769,4.769,0,0,1-5.337,2.78,5.207,5.207,0,0,1-2.638-1.362" transform="translate(-24.166 -70.056)" fill="#414142"/>
            <path id="Path_442" data-name="Path 442" d="M78.3,98.324c-4.21-.013-6.349-2.726-7.177-5.665-.015-.055-.021-.112-.036-.167a.418.418,0,0,1,.234-.542.439.439,0,0,1,.566.178c.446.548.871,1.118,1.361,1.624a5,5,0,0,0,2.467,1.539,4.652,4.652,0,0,0,4.241-1.2,8.162,8.162,0,0,0,1.054-1.209c.371-.485.757-.538,1.2-.1q.936.93,1.865,1.866a.7.7,0,0,1,.033,1.133,7.245,7.245,0,0,1-4.779,2.471c-.339.041-.682.052-1.024.078m3.35-4.8a6.4,6.4,0,0,1-3.968,2.66,5.2,5.2,0,0,1-4.553-1.315c2.236,3.555,8.122,3.165,10.236.371l-1.715-1.715" transform="translate(-48.207 -62.342)" fill="#414142"/>
            <path id="Path_443" data-name="Path 443" d="M85.473,87.014a2.091,2.091,0,0,1-.2.354q-.912,1.043-1.838,2.073a.441.441,0,0,1-.756,0c-.634-.686-1.26-1.381-1.891-2.071a.472.472,0,0,1,.009-.724c.625-.68,1.243-1.366,1.869-2.045.276-.3.509-.3.778,0q.928,1.029,1.84,2.071a2.027,2.027,0,0,1,.193.341m-2.424,1.539,1.366-1.538-1.365-1.537-1.4,1.537,1.4,1.538" transform="translate(-54.687 -57.237)" fill="#414142"/>
          </g>
        </g>
        <path id="Path_444" data-name="Path 444" d="M22.3,3.843a.652.652,0,0,1,.383.69c-.015.461,0,.923,0,1.376.314.075.62.131.915.22a4.766,4.766,0,0,1,3.348,4.127c.057.732.038,1.471.031,2.207a4.637,4.637,0,0,0,1.614,3.682A1.18,1.18,0,0,1,29,17.373a1.142,1.142,0,0,1-.828.864,1.47,1.47,0,0,1-.413.051c-.962,0-1.924,0-2.886,0H24.7c-.032.106-.058.2-.09.3a2.577,2.577,0,0,1-4.937-.156c-.032-.122-.082-.146-.195-.146q-1.483.005-2.967,0a1.191,1.191,0,0,1-1.22-1.111,1.178,1.178,0,0,1,.447-1.037,4.58,4.58,0,0,0,1.093-1.382,4.663,4.663,0,0,0,.516-2.188c0-.736-.035-1.476.027-2.208a4.83,4.83,0,0,1,4.277-4.433V5.709c0-.408.012-.817,0-1.225a.588.588,0,0,1,.4-.641Zm-.144,13.416H27.7a.837.837,0,0,0,.161-.005.168.168,0,0,0,.1-.273.81.81,0,0,0-.1-.1,5.6,5.6,0,0,1-1.918-4.274c-.006-.618.007-1.236,0-1.854a4.186,4.186,0,0,0-.084-.815,3.776,3.776,0,0,0-7.457.468c-.044.723-.023,1.45-.025,2.175a5.608,5.608,0,0,1-1.733,4.131c-.088.087-.189.161-.27.254a.2.2,0,0,0-.04.171.293.293,0,0,0,.151.118.381.381,0,0,0,.144,0h5.529M20.721,18.3a1.521,1.521,0,0,0,1.527,1.024A1.494,1.494,0,0,0,23.595,18.3Z" transform="translate(-10.367 -2.607)" fill="#414142"/>
        <path id="Path_445" data-name="Path 445" d="M70.188,3.843a.652.652,0,0,1,.383.69c-.015.461,0,.923,0,1.376.314.075.62.131.915.22a4.766,4.766,0,0,1,3.348,4.127c.057.732.038,1.471.031,2.207a4.637,4.637,0,0,0,1.614,3.682,1.18,1.18,0,0,1,.414,1.229,1.142,1.142,0,0,1-.828.864,1.471,1.471,0,0,1-.413.051c-.962,0-1.924,0-2.886,0h-.178c-.032.106-.058.2-.09.3a2.577,2.577,0,0,1-4.937-.156c-.032-.122-.082-.146-.195-.146q-1.483.005-2.967,0a1.191,1.191,0,0,1-1.22-1.111,1.178,1.178,0,0,1,.447-1.037,4.58,4.58,0,0,0,1.093-1.382,4.663,4.663,0,0,0,.516-2.188c0-.736-.035-1.476.027-2.208a4.83,4.83,0,0,1,4.277-4.433V5.709c0-.408.012-.817,0-1.225a.588.588,0,0,1,.4-.641Zm-.144,13.416H75.59a.837.837,0,0,0,.161-.005.168.168,0,0,0,.1-.273.811.811,0,0,0-.1-.1,5.6,5.6,0,0,1-1.918-4.274c-.006-.618.007-1.236,0-1.854a4.187,4.187,0,0,0-.084-.815,3.776,3.776,0,0,0-7.457.468c-.044.723-.023,1.45-.025,2.175a5.608,5.608,0,0,1-1.733,4.131c-.088.087-.189.161-.27.254a.2.2,0,0,0-.04.171.293.293,0,0,0,.151.118.381.381,0,0,0,.144,0h5.529M68.608,18.3a1.521,1.521,0,0,0,1.527,1.024A1.494,1.494,0,0,0,71.482,18.3Z" transform="translate(-42.85 -2.607)" fill="#414142"/>
        <path id="Path_446" data-name="Path 446" d="M118.075,3.843a.652.652,0,0,1,.383.69c-.015.461,0,.923,0,1.376.314.075.62.131.915.22a4.766,4.766,0,0,1,3.348,4.127c.057.732.038,1.471.031,2.207a4.637,4.637,0,0,0,1.614,3.682,1.18,1.18,0,0,1,.414,1.229,1.142,1.142,0,0,1-.828.864,1.47,1.47,0,0,1-.413.051c-.962,0-1.924,0-2.886,0h-.178c-.032.106-.058.2-.09.3a2.577,2.577,0,0,1-4.937-.156c-.032-.122-.082-.146-.195-.146q-1.483.005-2.967,0a1.191,1.191,0,0,1-1.22-1.111,1.178,1.178,0,0,1,.447-1.037A4.58,4.58,0,0,0,112.6,14.76a4.663,4.663,0,0,0,.516-2.188c0-.736-.035-1.476.027-2.208a4.83,4.83,0,0,1,4.277-4.433V5.709c0-.408.012-.817,0-1.225a.588.588,0,0,1,.4-.641Zm-.144,13.416h5.546a.837.837,0,0,0,.161-.005.168.168,0,0,0,.1-.273.81.81,0,0,0-.1-.1,5.6,5.6,0,0,1-1.918-4.274c-.006-.618.007-1.236,0-1.854a4.186,4.186,0,0,0-.084-.815,3.776,3.776,0,0,0-7.457.468c-.044.723-.023,1.45-.025,2.175a5.608,5.608,0,0,1-1.733,4.131c-.088.087-.189.161-.27.254a.2.2,0,0,0-.04.171.293.293,0,0,0,.151.118.381.381,0,0,0,.144,0h5.53M116.495,18.3a1.521,1.521,0,0,0,1.527,1.024,1.494,1.494,0,0,0,1.347-1.024Z" transform="translate(-75.333 -2.607)" fill="#414142"/>
        <path id="Path_447" data-name="Path 447" d="M192.562,3.843a.652.652,0,0,1,.383.69c-.015.461,0,.923,0,1.376.314.075.62.131.915.22a4.766,4.766,0,0,1,3.348,4.127c.057.732.038,1.471.031,2.207a4.637,4.637,0,0,0,1.614,3.682,1.18,1.18,0,0,1,.414,1.229,1.142,1.142,0,0,1-.828.864,1.47,1.47,0,0,1-.413.051c-.962,0-1.924,0-2.886,0h-.178c-.032.106-.058.2-.09.3a2.577,2.577,0,0,1-4.937-.156c-.032-.122-.082-.146-.195-.146q-1.483.005-2.967,0a1.191,1.191,0,0,1-1.22-1.111A1.178,1.178,0,0,1,186,16.142a4.58,4.58,0,0,0,1.093-1.382,4.663,4.663,0,0,0,.516-2.188c0-.736-.035-1.476.027-2.208a4.83,4.83,0,0,1,4.277-4.433V5.709c0-.408.012-.817,0-1.225a.588.588,0,0,1,.4-.641Zm-.144,13.416h5.546a.837.837,0,0,0,.161-.005.168.168,0,0,0,.1-.273.81.81,0,0,0-.1-.1,5.6,5.6,0,0,1-1.918-4.274c-.006-.618.007-1.236,0-1.854a4.187,4.187,0,0,0-.084-.815,3.776,3.776,0,0,0-7.457.468c-.044.723-.023,1.45-.025,2.175a5.608,5.608,0,0,1-1.733,4.131c-.088.087-.189.161-.27.254a.2.2,0,0,0-.04.171.293.293,0,0,0,.151.118.381.381,0,0,0,.144,0h5.53M190.982,18.3a1.521,1.521,0,0,0,1.527,1.024,1.494,1.494,0,0,0,1.347-1.024Z" transform="translate(-125.86 -2.607)" fill="#414142"/>
        <path id="Path_448" data-name="Path 448" d="M240.449,3.843a.651.651,0,0,1,.383.69c-.015.461,0,.923,0,1.376.314.075.62.131.915.22a4.766,4.766,0,0,1,3.348,4.127c.057.732.038,1.471.031,2.207a4.637,4.637,0,0,0,1.614,3.682,1.18,1.18,0,0,1,.414,1.229,1.142,1.142,0,0,1-.828.864,1.47,1.47,0,0,1-.413.051c-.962,0-1.924,0-2.886,0h-.178c-.032.106-.058.2-.09.3a2.577,2.577,0,0,1-4.937-.156c-.033-.122-.082-.146-.195-.146q-1.483.005-2.967,0a1.191,1.191,0,0,1-1.22-1.111,1.178,1.178,0,0,1,.447-1.037,4.58,4.58,0,0,0,1.093-1.382,4.663,4.663,0,0,0,.516-2.188c0-.736-.035-1.476.027-2.208A4.83,4.83,0,0,1,239.8,5.931V5.709c0-.408.012-.817,0-1.225a.588.588,0,0,1,.4-.641ZM240.3,17.259h5.546a.837.837,0,0,0,.161-.005.168.168,0,0,0,.1-.273.809.809,0,0,0-.1-.1,5.6,5.6,0,0,1-1.918-4.274c-.006-.618.007-1.236,0-1.854a4.188,4.188,0,0,0-.084-.815,3.776,3.776,0,0,0-7.457.468c-.044.723-.023,1.45-.025,2.175a5.608,5.608,0,0,1-1.733,4.131c-.088.087-.189.161-.27.254a.2.2,0,0,0-.04.171.293.293,0,0,0,.151.118.381.381,0,0,0,.144,0h5.53M238.869,18.3A1.521,1.521,0,0,0,240.4,19.32a1.494,1.494,0,0,0,1.347-1.024Z" transform="translate(-158.343 -2.607)" fill="#414142"/>
        <path id="Path_449" data-name="Path 449" d="M288.336,3.843a.652.652,0,0,1,.383.69c-.015.461,0,.923,0,1.376.314.075.62.131.915.22a4.766,4.766,0,0,1,3.348,4.127c.057.732.038,1.471.031,2.207a4.637,4.637,0,0,0,1.614,3.682,1.18,1.18,0,0,1,.414,1.229,1.142,1.142,0,0,1-.828.864,1.47,1.47,0,0,1-.413.051c-.962,0-1.924,0-2.886,0h-.178c-.032.106-.058.2-.09.3a2.577,2.577,0,0,1-4.937-.156c-.033-.122-.082-.146-.195-.146q-1.483.005-2.967,0a1.191,1.191,0,0,1-1.22-1.111,1.178,1.178,0,0,1,.447-1.037,4.58,4.58,0,0,0,1.093-1.382,4.664,4.664,0,0,0,.516-2.188c0-.736-.035-1.476.027-2.208a4.83,4.83,0,0,1,4.277-4.433V5.709c0-.408.012-.817,0-1.225a.588.588,0,0,1,.4-.641Zm-.144,13.416h5.546a.836.836,0,0,0,.161-.005.168.168,0,0,0,.1-.273.808.808,0,0,0-.1-.1,5.6,5.6,0,0,1-1.918-4.274c-.006-.618.007-1.236,0-1.854a4.184,4.184,0,0,0-.084-.815,3.775,3.775,0,0,0-7.457.468c-.044.723-.023,1.45-.025,2.175a5.608,5.608,0,0,1-1.733,4.131c-.088.087-.189.161-.27.254a.2.2,0,0,0-.04.171.294.294,0,0,0,.151.118.381.381,0,0,0,.144,0h5.529M286.756,18.3a1.521,1.521,0,0,0,1.527,1.024A1.494,1.494,0,0,0,289.63,18.3Z" transform="translate(-190.826 -2.607)" fill="#414142"/>
      </g>
    </g>
  </g>
</svg>
