<svg xmlns="http://www.w3.org/2000/svg" xmlns:xlink="http://www.w3.org/1999/xlink" width="64.503" height="43.113" viewBox="0 0 64.503 43.113">
  <defs>
    <clipPath id="clip-path">
      <rect id="Rectangle_221" data-name="Rectangle 221" width="64.503" height="43.113" fill="#414142"/>
    </clipPath>
  </defs>
  <g id="Group_414" data-name="Group 414" transform="translate(-2733 -3671)">
    <g id="Group_402" data-name="Group 402" transform="translate(2733 3671)">
      <g id="Group_401" data-name="Group 401" clip-path="url(#clip-path)">
        <path id="Path_502" data-name="Path 502" d="M6.137,43.113l-.047,0c-.261-.02-.445-.08-.431-.669.009-.38.007-.764.005-1.171,0-.187,0-.382,0-.587v-.354H3.16c-.993,0-.993,0-.993-.976V.9H1.813L1.39.9,1.011.9C.856.9.7.9.553.9A.681.681,0,0,1,.084.742.391.391,0,0,1,0,.428c.007-.141.021-.4.557-.4H63.443c.082,0,.169-.006.256-.012.07-.005.141-.011.208-.011a.336.336,0,0,1,.146.019,1.324,1.324,0,0,1,.45.389.781.781,0,0,1-.362.441,2.478,2.478,0,0,1-.809.082h-.082c-.149,0-.309,0-.473.01l-.335.018V39.137a2.62,2.62,0,0,1-.11,1.083,2.8,2.8,0,0,1-1.122.111H59.522s0,.749,0,.94c0,.428,0,.836,0,1.243.007.521-.2.579-.442.6h-.042c-.259,0-.394-.211-.4-.627-.007-.389-.005-.776,0-1.186q0-.279,0-.568v-.354H6.546s0,.707,0,.882c0,.392,0,.78,0,1.167-.007.456-.144.688-.407.688M32.751,39.4H61.509V.941H32.751Zm-29.658,0H31.785V.942H3.093Z" transform="translate(0)" fill="#414142"/>
        <path id="Path_503" data-name="Path 503" d="M164.575,81.181c-.1,0-.386,0-.392-.626s0-1.258,0-1.888c0,0,0-1.331,0-1.589,0-.591,0-1.2,0-1.8-.008-.574.2-.638.452-.658l.04,0c.351,0,.392.439.392.628q.008,1.82,0,3.641,0,.852,0,1.7c0,.52-.213.577-.45.593h-.04" transform="translate(-135.141 -61.419)" fill="#414142"/>
        <path id="Path_504" data-name="Path 504" d="M196.155,81.217c-.211,0-.437-.043-.437-.559V79.605q0-2.18,0-4.36c0-.574.273-.577.437-.578h.005c.163,0,.442.005.443.562q0,.951,0,1.9V80.64c0,.572-.274.575-.438.577Z" transform="translate(-161.103 -61.462)" fill="#414142"/>
      </g>
    </g>
  </g>
</svg>
