<svg xmlns="http://www.w3.org/2000/svg" xmlns:xlink="http://www.w3.org/1999/xlink" width="287" height="100" viewBox="0 0 287 100">
  <defs>
    <clipPath id="clip-path">
      <rect id="Rectangle_200" data-name="Rectangle 200" width="287" height="100" transform="translate(1271 3396)" fill="#fff"/>
    </clipPath>
  </defs>
  <g id="Mask_Group_7" data-name="Mask Group 7" transform="translate(-1271 -3396)" clip-path="url(#clip-path)">
    <g id="Group_353" data-name="Group 353" transform="translate(97.262 -26.692)">
      <path id="Path_167" data-name="Path 167" d="M477.132,470.716v33.892h-8.8c-.156-1.775-.343-3.521-.461-5.268a9.421,9.421,0,0,0-9.234-9.05q-7.92-.185-15.848,0a9.429,9.429,0,0,0-9.23,9.043c-.121,1.748-.3,3.5-.464,5.28H424.3v-33.9Z" transform="translate(867 2969.98)" fill="none" stroke="#414142" stroke-miterlimit="10" stroke-width="1.2"/>
      <path id="Path_168" data-name="Path 168" d="M409.738,514.258h22.571c-.272,3.213-.535,6.358-.8,9.58H419.354v28.789h-4.772V523.863h-4.843Z" transform="translate(867 2969.98)" fill="none" stroke="#414142" stroke-miterlimit="10" stroke-width="1.2"/>
      <path id="Path_169" data-name="Path 169" d="M465.129,523.821H436.31c.132-1.682.261-3.323.4-4.961q.439-5.336.9-10.672c.258-3.03.483-6.059.8-9.08a4.611,4.611,0,0,1,4.539-4.045q7.762-.028,15.524,0a4.606,4.606,0,0,1,4.569,4.105c.318,2.966.541,5.944.793,8.919q.543,6.372,1.067,12.744c.082.98.151,1.957.23,2.994" transform="translate(867 2969.98)" fill="none" stroke="#414142" stroke-miterlimit="10" stroke-width="1.2"/>
      <path id="Path_170" data-name="Path 170" d="M462.665,552.657H438.774v-4.745h9.484v-4.843h-.826c-2.881,0-5.76.005-8.641,0a4.8,4.8,0,0,1-.347-9.594q.17-.006.339,0c3.142-.008,6.287,0,9.52,0v-4.761h4.786v4.755h.941c2.879,0,5.76-.005,8.641,0a4.8,4.8,0,0,1,.3,9.6c-.112,0-.225,0-.337,0-2.854.008-5.708,0-8.565,0h-.9v4.764h9.5Z" transform="translate(867 2970.286)" fill="none" stroke="#414142" stroke-miterlimit="10" stroke-width="1.2"/>
      <path id="Path_171" data-name="Path 171" d="M486.931,552.641h-4.8V523.9H469.942c-.274-3.222-.541-6.366-.812-9.58h22.518v9.514h-4.712Z" transform="translate(867 2969.676)" fill="none" stroke="#414142" stroke-miterlimit="10" stroke-width="1.2"/>
    </g>
  </g>
</svg>
