<svg xmlns="http://www.w3.org/2000/svg" width="86.219" height="80.173" viewBox="0 0 86.219 80.173">
  <g id="Group_395" data-name="Group 395" transform="translate(-6370.894 -100.289)">
    <path id="Path_478" data-name="Path 478" d="M822.785,55.287c-.692.869-1.344,1.77-2.136,2.833h3.438c.142,0,.341-.019.411-.11.734-.929,1.449-1.872,2.268-2.945-1.285,0-2.32-.011-3.356.011a.893.893,0,0,0-.625.216" transform="translate(5563 94.389)" fill="none" stroke="#414142" stroke-miterlimit="10" stroke-width="1.2"/>
    <g id="Group_394" data-name="Group 394">
      <path id="Path_479" data-name="Path 479" d="M818.3,55.055h65.517c2.52,0,3.642-1.115,3.642-3.61V10.117c0-2.492-1.135-3.617-3.642-3.617H818.207c-2.51,0-3.642,1.124-3.642,3.617V51.359c0,2.619,1.088,3.7,3.732,3.7" transform="translate(5563 94.389)" fill="none" stroke="#414142" stroke-miterlimit="10" stroke-width="1.2"/>
      <path id="Path_480" data-name="Path 480" d="M810.3,62.077a1.578,1.578,0,0,0-1.783,1.815V83.406c0,1.578.486,2.066,2.061,2.066h20.676V62.109c-.234-.017-.378-.037-.52-.037H810.3m19.4,15.949a1.456,1.456,0,0,1-2.9,0c-.045-.558-.01-1.118-.01-1.68s-.035-1.123.01-1.681a1.371,1.371,0,0,1,1.4-1.3,1.353,1.353,0,0,1,1.487,1.206c0,.031.006.063.007.094q.078,1.684,0,3.363" transform="translate(5563 94.389)" fill="none" stroke="#414142" stroke-miterlimit="10" stroke-width="1.2"/>
      <path id="Path_481" data-name="Path 481" d="M893.511,64.179c0-1.626-.488-2.106-2.126-2.106H870.779v23.4H891.5c1.514,0,2.014-.508,2.014-2.032V64.179m-18.286,13.86a1.456,1.456,0,0,1-2.9-.022c-.05-1.118-.05-2.241,0-3.361a1.348,1.348,0,0,1,1.4-1.293h.013a1.371,1.371,0,0,1,1.482,1.25c0,.021,0,.041,0,.062.047.558.01,1.123.01,1.683s.035,1.123-.012,1.68" transform="translate(5563 94.389)" fill="none" stroke="#414142" stroke-miterlimit="10" stroke-width="1.2"/>
      <rect id="Rectangle_213" data-name="Rectangle 213" width="31.071" height="9.027" transform="translate(6398.462 156.458)" fill="none" stroke="#414142" stroke-miterlimit="10" stroke-width="1.2"/>
      <rect id="Rectangle_214" data-name="Rectangle 214" width="31.061" height="9.002" transform="translate(6398.5 170.86)" fill="none" stroke="#414142" stroke-miterlimit="10" stroke-width="1.2"/>
      <path id="Path_482" data-name="Path 482" d="M878.742,55.076c-1.088-.03-2.176-.015-3.478-.015.769,1.026,1.4,1.88,2.049,2.721.1.132.264.3.4.306,1.158.025,2.318.015,3.657.015-.772-1.026-1.4-1.882-2.056-2.714a.876.876,0,0,0-.575-.314" transform="translate(5563 94.389)" fill="none" stroke="#414142" stroke-miterlimit="10" stroke-width="1.2"/>
    </g>
  </g>
</svg>
