<svg id="Group_397" data-name="Group 397" xmlns="http://www.w3.org/2000/svg" xmlns:xlink="http://www.w3.org/1999/xlink" width="80" height="80.014" viewBox="0 0 80 80.014">
  <defs>
    <clipPath id="clip-path">
      <rect id="Rectangle_216" data-name="Rectangle 216" width="80" height="80.014" fill="#414142"/>
    </clipPath>
  </defs>
  <g id="Group_396" data-name="Group 396" clip-path="url(#clip-path)">
    <path id="Path_483" data-name="Path 483" d="M1.262,21.959A1.382,1.382,0,0,1,0,21.469V.71L.709,0H79.455c.357.2.548.5.544,1.262-.021,4.723-.018,9.524-.016,14.167q0,2.637,0,5.273c0,1.111-.126,1.238-1.227,1.239H63.562c-20.418,0-41.532,0-62.3.018Zm66.322-1.467c.433,0,.865,0,1.3-.008a2.69,2.69,0,0,0,2.8-2.644,2.6,2.6,0,0,0-.733-1.868,2.852,2.852,0,0,0-2.04-.824q-1.655-.014-3.311-.014t-3.325.015a2.849,2.849,0,0,0-2.04.822,2.6,2.6,0,0,0-.729,1.873,2.691,2.691,0,0,0,2.806,2.64c.432.006.865.008,1.3.008l1.987,0,1.987,0M65.77,6.824c1.3,0,2.476.016,3.587.049a4.038,4.038,0,0,1,3.775,3.842,4.512,4.512,0,0,1-1.081,3.1l-.5.633.53.608a4.339,4.339,0,0,1,.862,4.19l-.293,1.2H78.48V1.524H40.739v6.3q0,3.129-.005,6.257c0,.92-.424.991-.65,1.029a.85.85,0,0,1-.148.013c-.652,0-.687-.9-.688-1.083q-.009-3.249,0-6.5,0-2.07,0-4.141c0-.243-.016-.471-.03-.692-.006-.089-.012-.177-.017-.264l-.049-.922H1.512V20.442H8.52v-3.98c0-1.725,0-3.449.006-5.174,0-.88.306-1.033.981-1.044.17,0,.34,0,.514,0l.972,0h.973V9.271c0-.2,0-.391,0-.576,0-.37-.007-.72.006-1.054.021-.524.261-.789.713-.789a.742.742,0,0,1,.729.814c.012.336.009.683.006,1.05,0,.18,0,.364,0,.554v.973h2.241c1.015,0,1.157.143,1.159,1.152q.006,2.507,0,5.014v4.013h7.067V11.788c0-1.5.043-1.543,1.506-1.545h1.935V8.788c0-.3,0-.569,0-.834.009-1.1.433-1.1.714-1.1h0c.225,0,.729,0,.736,1.08,0,.3,0,.6,0,.914v1.4H31.07c.947.005,1.1.163,1.105,1.128q.007,1.864,0,3.729v5.343h26.4l-.327-1.225a4.265,4.265,0,0,1,.807-4.135l.306-.359-.1-.5a1.079,1.079,0,0,0-.172-.457c-.048-.07-.094-.134-.14-.2s-.091-.125-.133-.189a3.953,3.953,0,0,1-.338-4.251,3.806,3.806,0,0,1,3.559-2.265c1.465-.024,2.649-.035,3.726-.035M10.068,20.44h5.263V11.753H10.068Zm15.365,0H30.7V11.76H25.433ZM63.63,8.293c-.429,0-.859,0-1.288.007a2.952,2.952,0,0,0-2.112.849,2.6,2.6,0,0,0-.722,1.874,2.65,2.65,0,0,0,2.821,2.614q1.638.012,3.277.012t3.278-.013a2.662,2.662,0,0,0,2.8-2.649A2.7,2.7,0,0,0,68.825,8.3c-.415,0-.829-.006-1.244-.006l-1.958,0Z" transform="translate(0.001)" fill="#414142"/>
    <path id="Path_484" data-name="Path 484" d="M4.118,158.216a.708.708,0,0,1-.528-.243.69.69,0,0,1-.048-.9,3.752,3.752,0,0,1,.376-.4l.129-.128Q10.581,150,17.119,143.472a3.174,3.174,0,0,1,.354-.279c.091-.066.185-.133.279-.206l.839-.649-.719-.78-.239-.263c-.142-.157-.254-.28-.372-.4l-1.781-1.785c-2.437-2.443-4.957-4.969-7.461-7.431a3.25,3.25,0,0,0-1.793-.775,6.365,6.365,0,0,0-.859-.051c-.177,0-.354,0-.531.009-.16,0-.321.008-.481.008l-.154,0A4.083,4.083,0,0,1,.12,127.727a1.989,1.989,0,0,0-.12-.308v-1.266a1.265,1.265,0,0,0,.077-.2,4.184,4.184,0,0,1,4.457-3.375q3.63,0,7.26,0l12.089,0v-3.049q0-.429,0-.857c0-.633-.006-1.287.007-1.924.016-.755.225-.963.97-.968,1.219-.008,2.439-.015,3.658-.015q1.442,0,2.883.018a4.047,4.047,0,0,1,4.187,4.131,3.734,3.734,0,0,0,1.892,3.7,3.763,3.763,0,0,1,1.334,4.4,4.056,4.056,0,0,1-3.776,2.854l-.1.007a5.622,5.622,0,0,0-.989-.091,6.1,6.1,0,0,0-4.5,2.363c-1.842,1.984-3.821,3.933-5.735,5.818q-1.227,1.208-2.456,2.431l-.662.662.636.687.2.215c.146.161.283.311.427.455l13.067,13.072c.952.952.619,1.292.44,1.474-.222.226-.361.226-.413.226-.121,0-.465-.062-1.041-.639L32.364,156q-5.733-5.733-11.463-11.471a4,4,0,0,1-.307-.373c-.073-.095-.15-.2-.236-.3l-.664-.822-.765.729-.283.267c-.168.158-.309.29-.445.426l-4.464,4.464q-4.332,4.332-8.664,8.662l-.051.051a3.8,3.8,0,0,1-.517.463.691.691,0,0,1-.389.121m15.395-17.343,9.959-9.929H9.581Zm15.11-11.45a4.6,4.6,0,0,0,.511-.025,2.669,2.669,0,0,0,2.388-2.34,2.524,2.524,0,0,0-.591-2.023,3.016,3.016,0,0,0-2.316-.959q-3.557-.005-7.115,0h-14.6l-4.312,0q-2.184,0-4.368.011a2.644,2.644,0,0,0-2.755,2.607,2.708,2.708,0,0,0,2.739,2.729c.091,0,.182,0,.273,0H34.228Zm-9.194-6.884h8.678v-.973c0-.2,0-.4.006-.592.007-.443.014-.862-.017-1.3a2.5,2.5,0,0,0-2.339-2.4c-.668-.023-1.39-.033-2.274-.033-.514,0-1.028,0-1.543.007s-1.024.007-1.538.007h-.973Z" transform="translate(0 -78.202)" fill="#414142"/>
    <path id="Path_485" data-name="Path 485" d="M148.616,143.982c-1.182,0-1.278-.1-1.278-1.27q0-23.366,0-46.732c0-1.174.1-1.269,1.277-1.269h29.6c1.177,0,1.3.118,1.3,1.26q0,4.64,0,9.281c0,.1,0,.189-.008.276l-.005.079.008.079a4.115,4.115,0,0,1,.008.425l0,.2c0,9.843,0,26.486,0,36.328,0,1.19-.072,1.342-1.3,1.342h-29.6Zm.213-1.5h29.232V131.768c0-8.128,0-17.7,0-24.387v-.974l-29.234,0Zm.02-37.582h29.172V96.229H148.849Z" transform="translate(-99.53 -63.98)" fill="#414142"/>
    <path id="Path_486" data-name="Path 486" d="M177.471,186.872a9.274,9.274,0,0,1-9.161-9.346,9.386,9.386,0,0,1,9.218-9.187h.054a9.307,9.307,0,0,1,9.252,9.336,9.184,9.184,0,0,1-9.3,9.2Zm.084-17.037a7.792,7.792,0,0,0-.027,15.585h.059a7.792,7.792,0,0,0,.017-15.585Z" transform="translate(-113.697 -113.717)" fill="#414142"/>
    <path id="Path_487" data-name="Path 487" d="M214.033,111.916c-.183,0-.367,0-.551-.006s-.362-.006-.542-.006H212.9c-.188,0-.376,0-.564.006s-.357.005-.535.005c-.215,0-.429,0-.643-.017a.648.648,0,0,1-.665-.7.666.666,0,0,1,.633-.715c.61-.024,1.215-.036,1.8-.036h0c.608,0,1.211.013,1.792.039a.712.712,0,0,1-.082,1.415c-.2.011-.4.015-.606.015" transform="translate(-142.196 -74.61)" fill="#414142"/>
    <path id="Path_488" data-name="Path 488" d="M171.777,111.915v-.01l-.973,0c-.2,0-.389,0-.584.006s-.369.006-.554.006c-.214,0-.427,0-.64-.017a.709.709,0,0,1-.032-1.416c.608-.024,1.213-.036,1.8-.036.608,0,1.213.013,1.8.039a.692.692,0,0,1,.627.723.7.7,0,0,1-.707.693c-.2.011-.409.015-.614.015h-.115" transform="translate(-113.717 -74.609)" fill="#414142"/>
  </g>
</svg>
