<svg xmlns="http://www.w3.org/2000/svg" xmlns:xlink="http://www.w3.org/1999/xlink" width="56.398" height="86.073" viewBox="0 0 56.398 86.073">
  <defs>
    <clipPath id="clip-path">
      <rect id="Rectangle_232" data-name="Rectangle 232" width="56.398" height="86.073" fill="#414142"/>
    </clipPath>
  </defs>
  <g id="Group_415" data-name="Group 415" transform="translate(-2434 -3628)">
    <g id="Group_411" data-name="Group 411" transform="translate(2434 3628)">
      <g id="Group_410" data-name="Group 410" clip-path="url(#clip-path)">
        <path id="Path_521" data-name="Path 521" d="M45.415,220.035c0-.134,0-.542.878-.55s1.765-.006,2.648,0l2.228,0c.829,0,1.686.005,2.531-.007.806-.011.895.281.923.635,0,.019,0,.038,0,.056,0,.493-.616.549-.881.551q-2.553.011-5.107,0H46.248c-.73,0-.81-.3-.831-.631,0-.019,0-.038,0-.057" transform="translate(-34.148 -165.028)" fill="#414142"/>
        <path id="Path_522" data-name="Path 522" d="M45.294,275.285c0-.134,0-.542.878-.55s1.765-.006,2.648,0l2.228,0c.829,0,1.686.005,2.531-.007.806-.011.895.281.923.635,0,.019,0,.038,0,.056,0,.493-.616.549-.881.551q-2.553.011-5.107,0H46.127c-.73,0-.81-.3-.831-.631,0-.019,0-.038,0-.057" transform="translate(-34.057 -206.571)" fill="#414142"/>
        <path id="Path_523" data-name="Path 523" d="M130.081,240.928c-.3,0-.613-.061-.613-.784v-1.476q0-3.058,0-6.116c0-.8.383-.809.613-.811h.007c.229,0,.62.008.621.789q0,1.334,0,2.67v4.92c0,.8-.385.807-.615.809Z" transform="translate(-97.347 -174.249)" fill="#414142"/>
        <path id="Path_524" data-name="Path 524" d="M12.342,27.845c0-5.037.009-22.065-.011-27.1,0-.56.14-.744.721-.743Q28.2.024,43.339,0c.574,0,.728.17.727.737-.016,10.032-.011,32.056-.01,42.089,0,.934,0,.933.96.933,3.551,0,7.1.013,10.653-.013.587,0,.757.189.725.746-.039.7-.028,1.4,0,2.1.017.461-.162.628-.616.608-.907-.039-1-.2-.985,1.026.022,1.4.065,2.8.065,4.2,0,1.421-.061,2.842-.064,4.263q-.015,7.233-.006,14.466c0,1.589.018,3.179-.009,4.768-.009.532.146.735.7.717.9-.03.9,0,.894.911,0,.64-.015,1.281.016,1.919.022.458-.14.613-.606.607-1.589-.021-3.18.017-4.769-.008-.549-.009-.716.186-.706.72.028,1.506-.016,3.014.023,4.52.016.612-.2.783-.783.756-.948-.044-1.9-.035-2.848,0a.734.734,0,0,1-.845-.6c-.508-1.591-1.069-3.166-1.57-4.759a.788.788,0,0,0-.893-.634q-15.206.016-30.411,0a.79.79,0,0,0-.884.647c-.5,1.593-1.059,3.169-1.569,4.759a.7.7,0,0,1-.793.586c-1.031-.03-2.065-.024-3.1,0-.436.009-.579-.162-.575-.583.014-1.589-.009-3.179.013-4.768.006-.483-.15-.651-.642-.644-1.61.024-3.221-.008-4.831.014-.468.007-.62-.153-.6-.61.029-.721.03-1.446,0-2.167-.021-.5.135-.7.667-.687.929.026.928,0,.928-.95q0-10.435,0-20.87c0-2.265-.017-4.53.008-6.794.007-.6-.147-.862-.8-.823-.81.048-.81.005-.8-.823.005-.64.031-1.281,0-1.919-.029-.546.179-.7.718-.7,3.571.023,7.143.013,10.715.013.9,0,.9,0,.9-.928q0-7.493,0-14.986m3.792,1.938q0,6.563,0,13.126c0,.85,0,.851.851.851H39.4c.847,0,.85,0,.85-.85,0-8.771,0-29.534,0-38.305,0-.829,0-.832-.821-.832H16.953c-.819,0-.819,0-.819.833,0,4.4,0,20.783,0,25.179M28.129,47.214H3.355c-.844,0-.854,0-.845.866.016,1.689.068,3.378.062,5.068-.008,2.246-.08,4.492-.083,6.738C2.481,65.17,2.5,70.454,2.5,75.739c0,.877,0,.878.887.878L53,76.623c.879,0,.884,0,.88-.885-.022-6.148-.056-12.3-.064-18.443,0-3.052.042-6.1.062-9.156.006-.921,0-.925-.915-.925H28.129m-14.9-18.906q0,4.645,0,9.29c0,1.817,0,3.634.007,5.45,0,.211.078.595.153.6a5.155,5.155,0,0,0,1.586.005c.137-.028.231-.6.232-.916.013-9.022.012-30.035.014-39.057,0-.81,0-.811.826-.811H40.21c.965,0,.971,0,.971.984,0,8.9,0,29.787,0,38.685,0,1.386-.048,1.158,1.2,1.208.585.024.781-.146.78-.756-.018-9.786-.02-31.563,0-41.349,0-.618-.2-.751-.781-.75Q28.2.917,14.013.891c-.637,0-.8.194-.793.809.023,4.872.013,21.736.014,26.608m15.03,16.36H2.073c-.248,0-.5-.01-.742.013-.11.01-.3.083-.307.14a4.588,4.588,0,0,0-.01,1.276c.023.115.487.2.749.2q25.851.015,51.7.01c.5,0,.992.021,1.485-.014a.642.642,0,0,0,.482-.254c.34-.838-.031-1.373-.914-1.373H28.264m-.083,32.855H2.661a12.026,12.026,0,0,0-1.237.016.614.614,0,0,0-.448.293c-.314.922,0,1.341.949,1.343h.867l50.916,0c.413,0,.827.019,1.238-.01a.643.643,0,0,0,.462-.212.917.917,0,0,0-.84-1.426H28.181M11.325,80.174c-.317-.032-.5-.065-.675-.066-1.009-.005-2.019.017-3.027-.011-.528-.015-.671.207-.66.7.026,1.153.007,2.306.007,3.459,0,.89,0,.9.89.887,2.225-.043,1.647.369,2.386-1.709.37-1.04.7-2.1,1.079-3.261m33.812-.07a2.707,2.707,0,0,0,.037.408c.462,1.406.913,2.817,1.413,4.21a.812.812,0,0,0,.587.4c.571.057,1.151.015,1.727.024.37.005.515-.179.514-.532,0-1.338-.005-2.676,0-4.013,0-.387-.2-.5-.542-.5-.576,0-1.153,0-1.729,0H45.138" transform="translate(0 0)" fill="#414142"/>
        <path id="Path_525" data-name="Path 525" d="M140.168,211.042c0,3.983-.011,7.966.012,11.949,0,.582-.191.737-.748.736q-10.619-.023-21.239,0c-.6,0-.767-.183-.764-.778q.038-6.965.017-13.93c0-1.628-.063-3.256-.064-4.884,0-1.752.051-3.5.052-5.257,0-.458.156-.608.612-.605q5.758.036,11.516.038c3.281,0,6.561-.008,9.842-.044.591-.006.78.163.777.765-.023,4-.012,8.007-.013,12.011M128.846,222.8q4.8,0,9.6,0c.828,0,.833,0,.83-.82-.019-5.2-.048-10.4-.056-15.6,0-2.123.039-4.246.053-6.37.005-.819,0-.822-.829-.824q-4.947-.007-9.894-.01c-3.179,0-6.357.015-9.536,0-.517,0-.707.173-.679.68.048.862.093,1.727.086,2.59-.016,2.184-.084,4.368-.09,6.552-.013,4.334,0,8.668.005,13,0,.794.009.8.789.8h9.722" transform="translate(-88.261 -149.079)" fill="#414142"/>
        <path id="Path_526" data-name="Path 526" d="M29.362,210.031c-3.531,0-7.061-.012-10.592.013-.595,0-.781-.173-.776-.77q.039-5.139.006-10.279c0-.593.2-.723.752-.716,2.787.036,5.574.045,8.361.044,4.271,0,8.541-.023,12.812-.033.806,0,.8,0,.811.827.024,1.814.073,3.629.075,5.443,0,1.622-.066,3.245-.065,4.867,0,.512-.208.614-.668.612-3.572-.014-7.144-.008-10.716-.007m.013-.9v0h7.306c.867,0,1.734,0,2.6.007.37,0,.586-.1.575-.527-.039-1.494-.083-2.988-.085-4.482q0-2.1.084-4.2c.024-.581-.183-.742-.746-.738-3.112.023-6.224.007-9.336.014-1.029,0-2.059.053-3.088.05q-3.588-.01-7.176-.058c-.459-.006-.63.169-.61.618.038.843.069,1.688.065,2.532-.011,1.939-.041,3.877-.071,5.816-.014.938,0,.969.885.969q4.8,0,9.6,0" transform="translate(-13.53 -149.088)" fill="#414142"/>
        <path id="Path_527" data-name="Path 527" d="M29.358,265.311q-5.265,0-10.53,0c-.813,0-.812,0-.812-.826,0-3.386.013-6.772-.012-10.157,0-.579.184-.739.745-.738q10.623.022,21.246,0c.605,0,.763.195.759.78q-.037,5.109,0,10.219c0,.58-.18.741-.743.737-3.551-.021-7.1-.01-10.654-.01Zm.052-10.81q-4.8,0-9.593,0c-.9,0-.9,0-.9.872,0,2.764.015,5.528-.011,8.291-.005.572.173.75.738.749q9.747-.022,19.494,0c.581,0,.736-.2.731-.755q-.036-4.176,0-8.353c.006-.62-.169-.82-.8-.815-3.218.028-6.436.013-9.654.012" transform="translate(-13.538 -190.676)" fill="#414142"/>
      </g>
    </g>
  </g>
</svg>
