<svg xmlns="http://www.w3.org/2000/svg" width="76.143" height="86.2" viewBox="0 0 76.143 86.2">
  <g id="Group_399" data-name="Group 399" transform="translate(-5966.911 -94.289)">
    <path id="Path_494" data-name="Path 494" d="M404.511,85.5h34.5V.5h-34.5Zm25.946-43.654a2.463,2.463,0,1,1-2.43,2.494c0-.041,0-.08,0-.12a2.432,2.432,0,0,1,2.429-2.374" transform="translate(5563 94.389)" fill="none" stroke="#414142" stroke-miterlimit="10" stroke-width="1.2"/>
    <path id="Path_495" data-name="Path 495" d="M444.954,51.216h34.5V.5h-34.5Zm26.531-19.979a2.434,2.434,0,0,1,.085-4.867,2.486,2.486,0,0,1,2.4,2.569v.005a2.444,2.444,0,0,1-2.483,2.293" transform="translate(5563 94.389)" fill="none" stroke="#414142" stroke-miterlimit="10" stroke-width="1.2"/>
    <path id="Path_496" data-name="Path 496" d="M445.016,68.843h34.363V56.994H445.016Zm17.467-3.522a2.432,2.432,0,1,1,2.464-2.4c0,.031,0,.063,0,.094a2.442,2.442,0,0,1-2.461,2.305" transform="translate(5563 94.389)" fill="none" stroke="#414142" stroke-miterlimit="10" stroke-width="1.2"/>
    <path id="Path_497" data-name="Path 497" d="M444.982,85.5h34.4V73.813h-34.4Zm17.579-8.283a2.441,2.441,0,0,1-.016,4.882,2.477,2.477,0,0,1-2.423-2.532v-.015a2.437,2.437,0,0,1,2.44-2.335" transform="translate(5563 94.389)" fill="none" stroke="#414142" stroke-miterlimit="10" stroke-width="1.2"/>
  </g>
</svg>
