<svg id="Group_420" data-name="Group 420" xmlns="http://www.w3.org/2000/svg" xmlns:xlink="http://www.w3.org/1999/xlink" width="62.35" height="74.953" viewBox="0 0 62.35 74.953">
  <defs>
    <clipPath id="clip-path">
      <rect id="Rectangle_239" data-name="Rectangle 239" width="62.35" height="74.953" fill="#414142"/>
    </clipPath>
  </defs>
  <g id="Group_419" data-name="Group 419" clip-path="url(#clip-path)">
    <path id="Path_537" data-name="Path 537" d="M1.074,74.952a1.413,1.413,0,0,1-.91-.188A1.345,1.345,0,0,1,0,73.9c.152-7.192,1.14-12.848,3.109-17.8.168-.423.365-.832.573-1.265.08-.166.16-.333.239-.5,1.408-3.007,3.815-4.991,7.575-6.246a42.084,42.084,0,0,1,8.576-2.066,2.044,2.044,0,0,0,1.153-.466c.7-.663,1.369-1.331,2.073-2.038q.364-.365.734-.734l.61-.608-.76-.4c-7.783-4.143-9.37-11.53-9.9-18.21l-.024-.3-.236-.162a.778.778,0,0,0-.456-.2c-1.652-.119-1.822-.3-1.822-1.981v-.869q0-.954,0-1.908c0-1.215.371-1.592,1.576-1.614h.941l.133-.459a17.338,17.338,0,0,1,4.954-8.119A17.591,17.591,0,0,1,27.49,3.632l.5-.107V3.01c0-.244,0-.482,0-.715,0-.51,0-.991,0-1.473.013-.607.2-.8.79-.81Q29.963,0,31.141,0q1.2,0,2.4.012c.6.005.794.2.808.794.011.483.009.959.006,1.463q0,.336,0,.676v.468l.447.139c.292.091.584.176.872.261.611.179,1.189.348,1.75.562A17.22,17.22,0,0,1,48.034,15.42a1.423,1.423,0,0,0,1.5,1.119H49.6c.863,0,1.288.442,1.3,1.352.013.957.009,1.934,0,2.878l0,.525c0,1.169-.365,1.538-1.546,1.579-.08,0-.16.01-.254.019l-.127.012-.516.043-.063.514c-.054.442-.1.884-.149,1.325-.1.924-.2,1.88-.362,2.8-.922,5.334-2.837,9.111-6.027,11.888A21.486,21.486,0,0,1,39.6,41.109c-.377.25-.767.509-1.153.78l-.625.439.544.535q.345.34.7.689c.665.66,1.352,1.343,2.064,2a2.142,2.142,0,0,0,1.222.476,37.885,37.885,0,0,1,10.933,3.078,9.9,9.9,0,0,1,4.463,4.051,29.368,29.368,0,0,1,3.467,9.66,58.7,58.7,0,0,1,1.136,11.07,1.369,1.369,0,0,1-.174.88,1.4,1.4,0,0,1-.9.185H1.074ZM34.5,53.559q-.3.771-.6,1.526c-.633,1.62-1.232,3.151-1.811,4.717a2.142,2.142,0,0,0,.1,1.424q.99,2.582,1.992,5.16c.8,2.064,1.627,4.2,2.429,6.3a1.427,1.427,0,0,0,1.5,1.009h.035c1.042-.01,2.151-.015,3.593-.015l3.878,0h2.738V72.419q0-.654,0-1.306c0-1.027-.007-2.088.014-3.128a.6.6,0,0,1,.622-.646.629.629,0,0,1,.632.665c.018.274.014.552.01.848,0,.127,0,.254,0,.381v4.43H61.041v-.636c0-.111,0-.215.006-.315a4.62,4.62,0,0,0-.014-.682c-.1-.845-.192-1.692-.284-2.539-.228-2.094-.464-4.259-.811-6.379a26.33,26.33,0,0,0-2.891-8.666,8.663,8.663,0,0,0-3.57-3.821,35.268,35.268,0,0,0-10.86-3.3,2.28,2.28,0,0,0-.32-.024,1.5,1.5,0,0,0-1.409,1.033c-.622,1.406-1.286,2.825-1.928,4.2q-.312.667-.624,1.336c-.176.379-.443.831-.709.831a1.735,1.735,0,0,1-.918-.47l-.844-.651-1.054-.812ZM13.363,67.339c.509,0,.623.467.63.859s.006.8,0,1.2q0,.266,0,.532v3.75h4.269c1.972,0,4.093,0,6.245-.022a1.448,1.448,0,0,0,1.16-.883c1.478-3.764,3-7.695,4.525-11.684a2.009,2.009,0,0,0,.038-1.346c-.576-1.549-1.167-3.068-1.793-4.677-.194-.5-.894-2.3-.894-2.3l-.674.517-.5.388c-.313.242-.6.464-.891.682a1.428,1.428,0,0,1-.738.344c-.215,0-.432-.228-.643-.678q-.275-.588-.554-1.174c-.671-1.42-1.365-2.887-1.984-4.35a1.71,1.71,0,0,0-1.573-1.2,2.446,2.446,0,0,0-.62.088c-.827.216-1.657.424-2.487.633-1.657.416-3.371.845-5.043,1.337a10.17,10.17,0,0,0-6.82,5.607c-.083.186-.169.372-.254.557-.256.559-.521,1.137-.743,1.733a46.94,46.94,0,0,0-2.59,13.041c-.046.611-.077,1.231-.106,1.83q-.021.424-.044.851l-.037.671H12.722V71.57c0-1.123,0-2.233,0-3.342,0-.583.213-.882.625-.888Zm17.265-3.8-3.913,10.1h8.924L31.691,63.47Zm.544-13.207c-.5,0-.887.295-1.521.783-.025.019-.052.036-.079.054a1.266,1.266,0,0,0-.453.44,1.375,1.375,0,0,0-.207,1.121c.389,1.062.808,2.13,1.251,3.262l.42,1.074.592,1.52.593-1.52c.173-.442.334-.865.489-1.272.349-.914.678-1.777,1.04-2.6a1.525,1.525,0,0,0-.561-2.076l-.09-.065a2.62,2.62,0,0,0-1.473-.718m-6.866-6.147-.425.453c-.425.452-.865.92-1.29,1.4a1.18,1.18,0,0,0-.242,1.16c.613,1.362,1.23,2.691,1.884,4.1l.826,1.779,5.1-3.963-5.4-5.409Zm7.985,5,5,3.877.84-1.8c.643-1.379,1.251-2.681,1.85-4.015a1.244,1.244,0,0,0-.233-1.218c-.414-.487-.845-.958-1.225-1.373-.126-.138-.247-.27-.361-.4l-.449-.495Zm-1.141-1.172,4.992-4.984H26.135ZM15.138,23.647c.12.676.229,1.356.334,2.012.24,1.5.467,2.924.829,4.351a15.745,15.745,0,0,0,5.328,8.823,14.318,14.318,0,0,0,9.326,3.087h0a22.885,22.885,0,0,0,2.466-.14,13.4,13.4,0,0,0,10.088-6.006,19.233,19.233,0,0,0,2.92-7.335c.208-1.1.356-2.22.5-3.308.065-.5.131-1,.2-1.506l.1-.726H15Zm-2.352-2.085h36.8V17.844h-36.8Zm9.488-8.847c.532,0,.62.525.625.837.008.518.007,1.027,0,1.565,0,.238,0,.477,0,.717v.636H39.447v-.636c0-.246,0-.487,0-.725,0-.518,0-1.021,0-1.524.007-.577.22-.871.633-.871s.628.3.636.876c.007.52,0,1.04,0,1.553q0,.344,0,.684v.636h6.193l-.178-.778c-1.108-4.848-7.122-10.3-11.7-10.6l-.678-.045V7.156c0,1.132,0,2.264,0,3.395,0,.7-.183.878-.868.884q-.865.007-1.73.006l-2.477,0c-1.225,0-1.285-.059-1.285-1.256V4.919l-.753.14c-5.287.986-10.382,5.647-11.6,10.611l-.193.788H21.63v-.636c0-.251,0-.5,0-.736,0-.531,0-1.033,0-1.536.008-.541.215-.822.615-.834Zm7.04-2.6h3.707V1.29H29.314Z" transform="translate(0)" fill="#414142"/>
  </g>
</svg>
