<svg xmlns="http://www.w3.org/2000/svg" xmlns:xlink="http://www.w3.org/1999/xlink" width="186" height="107" viewBox="0 0 186 107">
  <defs>
    <clipPath id="clip-path">
      <rect id="Rectangle_193" data-name="Rectangle 193" width="186" height="107" transform="translate(1271 2409)" fill="#fff" stroke="#707070" stroke-width="1"/>
    </clipPath>
  </defs>
  <g id="Mask_Group_6" data-name="Mask Group 6" transform="translate(-1271 -2409)" clip-path="url(#clip-path)">
    <g id="Group_305" data-name="Group 305" transform="translate(3568.497 -140.988)">
      <path id="Path_174" data-name="Path 174" d="M416.591,745.921h9.089c0,1.076-.006,2.13,0,3.184.008,1.1-.05,2.2.061,3.284a8.034,8.034,0,0,0,3.156,5.449,12.181,12.181,0,1,1-15.53,0,8.064,8.064,0,0,0,3.23-6.858c-.039-1.654-.007-3.311-.007-5.059" transform="translate(-2652 1868.5)" fill="none" stroke="#414142" stroke-miterlimit="10" stroke-width="1"/>
      <path id="Path_175" data-name="Path 175" d="M447.1,782.322h40.172c1.831,0,2.231.4,2.231,2.247,0,.711.015,1.423,0,2.133a1.546,1.546,0,0,1-1.4,1.677,1.51,1.51,0,0,1-.252,0c-.237.01-.474,0-.711,0h-80.26c-1.992,0-2.363-.377-2.363-2.4,0-.652-.011-1.3,0-1.955a1.518,1.518,0,0,1,1.311-1.7,1.493,1.493,0,0,1,.389,0c2.548-.014,5.1-.005,7.643-.005H447.1" transform="translate(-2652 1868.5)" fill="none" stroke="#414142" stroke-miterlimit="10" stroke-width="1"/>
      <path id="Path_176" data-name="Path 176" d="M442.54,777.08V729.925c.643.635,1.155,1.13,1.655,1.637.934.948,2.211,1.756,2.692,2.9.467,1.109.122,2.564.122,3.866q0,16.66.016,33.323a2.032,2.032,0,0,1-.685,1.619c-1.234,1.184-2.419,2.419-3.8,3.812" transform="translate(-2652 1868.5)" fill="none" stroke="#414142" stroke-miterlimit="10" stroke-width="1"/>
      <path id="Path_177" data-name="Path 177" d="M484.89,730.168v46.778c-.265-.206-.444-.327-.6-.472-.218-.2-.42-.417-.627-.629-1.073-1.1-2.561-2.03-3.1-3.348s-.149-3.031-.149-4.57q0-16.306-.015-32.613a2.044,2.044,0,0,1,.671-1.628c1.233-1.183,2.411-2.424,3.611-3.64l.212.122" transform="translate(-2652 1868.5)" fill="none" stroke="#414142" stroke-miterlimit="10" stroke-width="1"/>
      <path id="Path_178" data-name="Path 178" d="M482.709,779.187H444.74c1.512-1.525,2.89-2.932,4.3-4.307a1.179,1.179,0,0,1,.745-.162q13.9-.012,27.81,0a1.291,1.291,0,0,1,.819.194c1.4,1.352,2.766,2.742,4.3,4.274" transform="translate(-2652 1868.5)" fill="none" stroke="#414142" stroke-miterlimit="10" stroke-width="1"/>
      <path id="Path_179" data-name="Path 179" d="M444.646,727.745h38.085c-1.554,1.55-2.934,2.946-4.346,4.309a1.189,1.189,0,0,1-.746.158q-13.951.011-27.9,0a1.26,1.26,0,0,1-.806-.234c-1.383-1.328-2.733-2.69-4.283-4.23" transform="translate(-2652 1868.5)" fill="none" stroke="#414142" stroke-miterlimit="10" stroke-width="1"/>
      <path id="Path_180" data-name="Path 180" d="M421.226,739.829c1.895,0,3.79-.006,5.684,0,1.142.005,1.8.566,1.794,1.507s-.674,1.515-1.8,1.518q-5.773.011-11.546,0c-1.125,0-1.792-.588-1.791-1.523s.65-1.5,1.8-1.5c1.954-.008,3.908,0,5.862,0" transform="translate(-2652 1868.5)" fill="none" stroke="#414142" stroke-miterlimit="10" stroke-width="1"/>
      <path id="Path_181" data-name="Path 181" d="M415.611,713.1a6.57,6.57,0,0,0-.013,5,6.851,6.851,0,0,1-4.842.293,7.762,7.762,0,0,1-2.5-1.261,1.8,1.8,0,0,1,0-3.081,7.039,7.039,0,0,1,6.031-1.317,13.255,13.255,0,0,1,1.324.367" transform="translate(-2652 1868.5)" fill="none" stroke="#414142" stroke-miterlimit="10" stroke-width="1"/>
      <path id="Path_182" data-name="Path 182" d="M421.721,721.712c2.345-.661,2.345-.661,4.452-2.564a7.482,7.482,0,0,1,2.818,6.82,1.831,1.831,0,0,1-2.772,1.494c-2.523-1.063-3.8-3.138-4.5-5.75" transform="translate(-2652 1868.5)" fill="none" stroke="#414142" stroke-miterlimit="10" stroke-width="1"/>
      <path id="Path_183" data-name="Path 183" d="M426.076,712.087a6.4,6.4,0,0,0-4.515-2.546,13.031,13.031,0,0,1,1.236-2.834,11.587,11.587,0,0,1,2.815-2.743c1.662-1.077,3.148-.253,3.3,1.723a7.628,7.628,0,0,1-2.836,6.4" transform="translate(-2652 1868.5)" fill="none" stroke="#414142" stroke-miterlimit="10" stroke-width="1"/>
      <path id="Path_184" data-name="Path 184" d="M430.441,718.847a9.839,9.839,0,0,1-.973-.661c-.615-.552-1.185-1.155-1.812-1.693a1.077,1.077,0,0,1-.346-1.483,1.065,1.065,0,0,1,.331-.337,12.065,12.065,0,0,0,1.6-1.524c.368-.457.76-.693,1.282-.5a16.039,16.039,0,0,1,3.395,1.393,1.779,1.779,0,0,1-.054,3.2,27.469,27.469,0,0,1-3.424,1.6" transform="translate(-2652 1868.5)" fill="none" stroke="#414142" stroke-miterlimit="10" stroke-width="1"/>
      <path id="Path_185" data-name="Path 185" d="M413.185,706.205a8.331,8.331,0,0,1,.1-1.056,1.825,1.825,0,0,1,2.016-1.609,1.882,1.882,0,0,1,.5.131,6.341,6.341,0,0,1,3.339,2.636,1.168,1.168,0,0,1,.069.808c-.166.806-.411,1.6-.574,2.4a1.083,1.083,0,0,1-1.631.892,11.713,11.713,0,0,0-2.116-.61,1.225,1.225,0,0,1-1.137-.93c-.24-.873-.459-1.751-.687-2.628l.121-.038" transform="translate(-2652 1868.5)" fill="none" stroke="#414142" stroke-miterlimit="10" stroke-width="1"/>
      <path id="Path_186" data-name="Path 186" d="M413.3,724.918c.059-.411.107-.913.2-1.4.236-1.184.614-2.2,2.131-2.217a4.382,4.382,0,0,0,1.421-.47c.915-.356,1.492.008,1.665,1a10.68,10.68,0,0,0,.511,2.054,1.107,1.107,0,0,1-.21,1.355,20.1,20.1,0,0,1-2.1,1.877,2.35,2.35,0,0,1-2.591.306c-.931-.521-.951-1.491-1.032-2.5" transform="translate(-2652 1868.5)" fill="none" stroke="#414142" stroke-miterlimit="10" stroke-width="1"/>
      <path id="Path_187" data-name="Path 187" d="M421.141,712.583a3.044,3.044,0,1,1-3.031,3.168c0-.043,0-.087,0-.13a3.014,3.014,0,0,1,2.991-3.037h.038" transform="translate(-2652 1868.5)" fill="none" stroke="#414142" stroke-miterlimit="10" stroke-width="1"/>
      <path id="Path_188" data-name="Path 188" d="M421.221,727.572a3.068,3.068,0,0,1,1.465,3.073c-.139,2-.035,4.01-.035,6.085h-3.029V733.3a18.215,18.215,0,0,0-.013-2.037c-.173-1.534.079-2.862,1.612-3.7" transform="translate(-2652 1868.5)" fill="none" stroke="#414142" stroke-miterlimit="10" stroke-width="1"/>
      <path id="Path_189" data-name="Path 189" d="M477.319,771.629H450.086v-36.32h27.233Zm-11.943-31.914a5.451,5.451,0,0,0-1.081-1.222,1.4,1.4,0,0,0-1.773.358q-4.453,4.453-8.9,8.913a1.517,1.517,0,1,0,1.929,2.342,1.5,1.5,0,0,0,.21-.211q4.469-4.439,8.9-8.916a6.18,6.18,0,0,0,.718-1.263m-7.632-.029c-.313-.393-.555-.972-.963-1.133a1.932,1.932,0,0,0-1.552.111,8.987,8.987,0,0,0-1.777,1.718,1.493,1.493,0,0,0,2.113,2.089,16.7,16.7,0,0,0,1.687-1.7,4.59,4.59,0,0,0,.492-1.09" transform="translate(-2652 1868.5)" fill="none" stroke="#414142" stroke-miterlimit="10" stroke-width="1"/>
    </g>
  </g>
</svg>
