<svg xmlns="http://www.w3.org/2000/svg" xmlns:xlink="http://www.w3.org/1999/xlink" width="186" height="107" viewBox="0 0 186 107">
  <defs>
    <clipPath id="clip-path">
      <rect id="Rectangle_194" data-name="Rectangle 194" width="186" height="107" transform="translate(867 2409)" fill="#fff" stroke="#707070" stroke-width="1"/>
    </clipPath>
  </defs>
  <g id="Mask_Group_5" data-name="Mask Group 5" transform="translate(-867 -2409)" clip-path="url(#clip-path)">
    <g id="Group_307" data-name="Group 307" transform="translate(2761.488 94.783)">
      <path id="Path_190" data-name="Path 190" d="M864.551,506.518h28.912c.017.323.046.608.046.893v43.735c0,1.323-.2,1.512-1.551,1.512H866.024c-1.29,0-1.519-.218-1.519-1.464V507.37c0-.258.027-.517.046-.852m5.5,6.606c0-.914.018-1.83,0-2.745s-.483-1.44-1.208-1.457a1.248,1.248,0,0,0-1.254,1.4q-.035,2.787,0,5.577c.012.867.472,1.341,1.2,1.354.756.013,1.231-.483,1.259-1.389s.006-1.831.008-2.745" transform="translate(-2652 1868.5)" fill="none" stroke="#414142" stroke-miterlimit="10" stroke-width="1"/>
      <path id="Path_191" data-name="Path 191" d="M864.543,503.924c-.015-.332-.038-.621-.038-.908v-19.3c0-1.414.167-1.583,1.566-1.583h25.935c1.324,0,1.5.174,1.5,1.457v20.334Zm5.506-6.475c0-.943.022-1.888-.006-2.831-.026-.878-.542-1.41-1.274-1.384a1.238,1.238,0,0,0-1.192,1.28c0,.033,0,.067.008.1q-.035,2.79,0,5.577a1.249,1.249,0,0,0,1.1,1.384l.082.007a1.264,1.264,0,0,0,1.284-1.242,1.14,1.14,0,0,0-.006-.144c.029-.914.006-1.829.006-2.744" transform="translate(-2652 1868.5)" fill="none" stroke="#414142" stroke-miterlimit="10" stroke-width="1"/>
      <path id="Path_192" data-name="Path 192" d="M833.966,545.763H808.561c-.017-.279-.047-.535-.047-.791V522.744c0-1.111.255-1.383,1.33-1.384q11.731-.008,23.463,0c.2,0,.4.019.661.032Zm-12.681-20.2h-9.376c-1.244,0-1.643.4-1.644,1.629q-.006,6.414,0,12.828c0,1.219.41,1.62,1.667,1.621q9.243.008,18.486,0c1.3,0,1.686-.392,1.688-1.69q.008-6.325,0-12.651c0-1.378-.358-1.737-1.712-1.738h-9.11" transform="translate(-2652 1868.5)" fill="none" stroke="#414142" stroke-miterlimit="10" stroke-width="1"/>
      <path id="Path_193" data-name="Path 193" d="M836.574,531.755h11.375v20.831H836.574Zm7.447,10.369c0,1-.022,2,.007,3.005.025.868.468,1.34,1.191,1.359.757.02,1.251-.475,1.263-1.376q.038-2.916,0-5.833c-.01-.887-.518-1.429-1.238-1.424s-1.2.547-1.222,1.441c-.023.941,0,1.885,0,2.828" transform="translate(-2652 1868.5)" fill="none" stroke="#414142" stroke-miterlimit="10" stroke-width="1"/>
      <path id="Path_194" data-name="Path 194" d="M850.576,531.772h11.4c.017.324.045.61.045.9v18.5c0,1.312-.176,1.489-1.469,1.489h-9.979Zm1.492,10.332c0,1-.013,2.006,0,3.009.015.856.45,1.346,1.174,1.374a1.22,1.22,0,0,0,1.292-1.354q.031-2.964,0-5.929a1.234,1.234,0,0,0-1.122-1.338c-.035,0-.069-.005-.1-.005-.738-.006-1.226.532-1.241,1.411-.015.944,0,1.888,0,2.832" transform="translate(-2652 1868.5)" fill="none" stroke="#414142" stroke-miterlimit="10" stroke-width="1"/>
      <path id="Path_195" data-name="Path 195" d="M836.532,529.191V521.4c.333-.014.646-.041.958-.041h22.993c1.359,0,1.539.178,1.54,1.515v6.322Zm12.778-5.122c-.972,0-1.945-.016-2.917,0-.926.021-1.417.458-1.423,1.216s.49,1.233,1.4,1.246q2.918.039,5.835,0a1.268,1.268,0,0,0,1.393-1.13,1.292,1.292,0,0,0,.007-.139c-.021-.718-.564-1.175-1.467-1.193-.943-.02-1.886,0-2.829,0" transform="translate(-2652 1868.5)" fill="none" stroke="#414142" stroke-miterlimit="10" stroke-width="1"/>
      <path id="Path_196" data-name="Path 196" d="M835.288,508.1c2.035,0,4.07-.007,6.1,0,1.07,0,1.3.243,1.308,1.3.005,2.272.011,4.543,0,6.814a2.38,2.38,0,0,1-2.076,2.649,2.339,2.339,0,0,1-.536,0q-4.822.029-9.645,0a2.417,2.417,0,0,1-2.615-2.2,2.367,2.367,0,0,1,.006-.476c-.016-2.27-.01-4.543,0-6.815,0-.991.27-1.263,1.262-1.269,2.065-.012,4.129,0,6.194,0" transform="translate(-2652 1868.5)" fill="none" stroke="#414142" stroke-miterlimit="10" stroke-width="1"/>
      <path id="Path_197" data-name="Path 197" d="M848.005,481.818h-25.51c.238-.263.375-.436.532-.589,2.563-2.479,5.117-4.97,7.71-7.419a2.144,2.144,0,0,1,1.292-.539c2.18-.054,4.362-.039,6.543-.009a1.652,1.652,0,0,1,1.034.319c2.752,2.623,5.473,5.281,8.2,7.929a2.225,2.225,0,0,1,.2.308" transform="translate(-2652 1868.5)" fill="none" stroke="#414142" stroke-miterlimit="10" stroke-width="1"/>
      <path id="Path_198" data-name="Path 198" d="M849.99,484.411c0,1.232.057,2.411-.038,3.579-.025.314-.5.6-.8.875-.064.059-.228.018-.346.018H821.738c-.793,0-1.217-.317-1.2-1.153.017-1.088,0-2.176,0-3.323Z" transform="translate(-2652 1868.5)" fill="none" stroke="#414142" stroke-miterlimit="10" stroke-width="1"/>
      <path id="Path_199" data-name="Path 199" d="M833.966,552.657H809.987c-1.273,0-1.474-.206-1.475-1.5,0-.856,0-1.712.009-2.567a1.438,1.438,0,0,1,.055-.242h25.39Z" transform="translate(-2652 1868.5)" fill="none" stroke="#414142" stroke-miterlimit="10" stroke-width="1"/>
      <rect id="Rectangle_92" data-name="Rectangle 92" width="6.359" height="2.998" transform="translate(-1819.9 2336.217)" fill="none" stroke="#414142" stroke-miterlimit="10" stroke-width="1"/>
      <rect id="Rectangle_93" data-name="Rectangle 93" width="16.777" height="11.02" transform="translate(-1839.2 2396.584)" fill="none" stroke="#414142" stroke-miterlimit="10" stroke-width="1"/>
    </g>
  </g>
</svg>
