<svg xmlns="http://www.w3.org/2000/svg" width="86.001" height="63.844" viewBox="0 0 86.001 63.844">
  <g id="Group_423" data-name="Group 423" transform="translate(2651.989 -2589.024)">
    <path id="Path_564" data-name="Path 564" d="M.511,745.652a6.489,6.489,0,0,1,1.774-3.12,7.353,7.353,0,0,1,7.96-.42,15.338,15.338,0,0,1,7.481,11.208c.55,3.176.764,6.415,1.015,9.634.153,1.969.723,2.646,2.675,2.646h43.17c2.008,0,2.641-.654,2.69-2.7a42.47,42.47,0,0,1,1.778-12.431,14.818,14.818,0,0,1,7.073-8.541,7.222,7.222,0,0,1,7.6.6,4.877,4.877,0,0,1,.791,6.713,5.6,5.6,0,0,1-5.635,2.2,3.751,3.751,0,0,0-4.488,2.629,15.748,15.748,0,0,0-.556,7.462c.335,3.157.871,6.293,1.362,9.432.317,2.024-1.952,4.692-4.138,4.757-1.215.036-2.432.006-3.754.006-.014.295-.035.557-.036.82,0,1.633.007,3.266,0,4.9a2.145,2.145,0,0,1-1.854,2.4,2.119,2.119,0,0,1-.557,0q-.623.009-1.245,0a2.148,2.148,0,0,1-2.411-2.4c-.026-1.577-.006-3.155-.007-4.732v-.932H24.839v4.673c0,2.979-.422,3.4-3.419,3.389-1.92,0-2.645-.733-2.648-2.661q0-2.573-.007-5.147a2.858,2.858,0,0,0-.052-.3H16.046c-2.913,0-4.407-1.076-5.156-3.887a4.8,4.8,0,0,1,.169-1.95,53.971,53.971,0,0,0,1.231-12.021,14.129,14.129,0,0,0-.679-3.807,3.619,3.619,0,0,0-4.39-2.633l-.077.02a5.829,5.829,0,0,1-6.633-4.307Z" transform="translate(-2652 1868.5)" fill="none" stroke="#414142" stroke-miterlimit="10" stroke-width="1"/>
    <path id="Path_565" data-name="Path 565" d="M74.053,738.23c-1.571,1.288-3.165,2.406-4.53,3.755A19.407,19.407,0,0,0,64.306,752.7c-.523,2.9-.821,5.841-1.228,8.831H22.829c-.133-1.518-.232-3.052-.408-4.578-.489-4.225-1.33-8.344-3.6-12.044a18.447,18.447,0,0,0-5.2-5.4c-.269-.191-.54-.379-.854-.6a24.188,24.188,0,0,1,3.7-5.957,32.582,32.582,0,0,1,20.516-11.337,38.59,38.59,0,0,1,24.831,4.079A27.137,27.137,0,0,1,73.951,738c.047.1.089.2.1.228" transform="translate(-2652 1868.5)" fill="none" stroke="#414142" stroke-miterlimit="10" stroke-width="1"/>
  </g>
</svg>
