<svg xmlns="http://www.w3.org/2000/svg" xmlns:xlink="http://www.w3.org/1999/xlink" width="186" height="107" viewBox="0 0 186 107">
  <defs>
    <clipPath id="clip-path">
      <rect id="Rectangle_190" data-name="Rectangle 190" width="186" height="107" transform="translate(463 2201)" fill="#fff" stroke="#707070" stroke-width="1"/>
    </clipPath>
    <clipPath id="clip-path-2">
      <rect id="Rectangle_166" data-name="Rectangle 166" width="79.962" height="85" fill="#414142"/>
    </clipPath>
  </defs>
  <g id="Mask_Group_3" data-name="Mask Group 3" transform="translate(-463 -2201)" clip-path="url(#clip-path)">
    <g id="Group_310" data-name="Group 310" transform="translate(516 2223)">
      <g id="Group_309" data-name="Group 309" clip-path="url(#clip-path-2)">
        <path id="Path_310" data-name="Path 310" d="M69.939,193.466c-.34,0-.461-.44-.5-.629-.322-1.672-.629-3.35-.913-4.99a1.413,1.413,0,0,0-1.49-1.359c-4.27.015-8.6.016-12.8.016l-4.853,0a2.035,2.035,0,0,0-.383.044c-.047.009-.1.019-.164.029l-.512.078-.253,1.374c-.273,1.482-.54,2.928-.808,4.374-.038.2-.081.435-.14.641-.113.391-.281.391-.416.391a1.092,1.092,0,0,1-.2-.021c-.361-.069-.458-.2-.4-.556.186-1.146.4-2.311.605-3.437q.134-.735.267-1.47c.018-.1.034-.2.054-.332l.164-1.045H32.756l.95,5.3c.015.081.03.162.046.243.04.21.077.408.1.6.067.663-.222.7-.414.723a1.183,1.183,0,0,1-.146.01c-.168,0-.376,0-.47-.489q-.268-1.4-.526-2.811-.161-.87-.323-1.74c-.052-.279-.109-.556-.171-.859l-.211-1.048-9.416,0c-2.447,0-5.674,0-8.931-.017h0a1.6,1.6,0,0,0-1.831,1.543c-.166,1.183-.4,2.386-.633,3.549q-.113.575-.225,1.15c-.138.719-.372.719-.5.719a.974.974,0,0,1-.17-.017.513.513,0,0,1-.342-.166c-.045-.065-.138-.272-.039-.8l.121-.641c.223-1.186.447-2.372.662-3.56a5.324,5.324,0,0,0,.064-.641c.006-.1.013-.214.023-.338l.064-.787L7,186.5c-.558,0-1.113,0-1.667,0-.924,0-.989-.072-.989-1.019q0-11.862,0-23.723V149.87l-1.535,0c-.15,0-.3,0-.445,0A2.191,2.191,0,0,1,.036,147.7a18.869,18.869,0,0,1,0-2.363,2.207,2.207,0,0,1,2.278-2.156c.075,0,.151,0,.226,0l.382,0H77.04c2.178,0,2.913.735,2.915,2.915,0,.156,0,.312,0,.468,0,.389.009.757-.015,1.119a2.208,2.208,0,0,1-2.316,2.184c-.14,0-.279,0-.424,0l-.842,0h-.727v35.412c0,1.212,0,1.212-1.25,1.216q-1.911.007-3.822.024a.96.96,0,0,0-.466.138c-.03.016-.068.037-.121.062l-.5.239.365,1.994c.217,1.188.435,2.387.663,3.586.129.682-.073.769-.288.861a.7.7,0,0,1-.271.064m-29.619-8.05c2.191,0,3.879.01,5.474.033h.061a1.748,1.748,0,0,0,1.924-1.676c.434-2.5.9-5.043,1.36-7.5q.306-1.652.61-3.3c.269-1.469.533-2.939.8-4.418l.475-2.639-.584-.206c-1.3-.457-1.493-1.16-1.519-1.72a33.655,33.655,0,0,1,0-3.382,1.667,1.667,0,0,1,1.645-1.623c2.587-.015,5.245-.023,7.9-.023,2.472,0,5.012.007,7.551.02a1.631,1.631,0,0,1,1.659,1.616c.032.38.03.767.028,1.177,0,.349,0,.71.018,1.075.1,1.752-.294,2.492-1.5,2.825l-.641.177.567,3.1c.964,5.273,1.875,10.254,2.825,15.344a1.424,1.424,0,0,0,1.173,1.1c.69.026,1.366.029,1.878.029l.877,0,.885,0h.727V149.935H5.484v35.489h.727c.333,0,.662,0,.987-.006s.626-.005.935-.005c.493,0,.9.007,1.265.023l.116,0a1.49,1.49,0,0,0,1.556-1.412c.419-2.374.867-4.786,1.3-7.118q.325-1.754.649-3.508c.29-1.583.575-3.167.857-4.741l.474-2.632-.49-.243c-1.4-.7-1.6-1-1.6-2.521,0-.209,0-.417,0-.626-.006-.62-.011-1.262.022-1.878a1.707,1.707,0,0,1,1.856-1.791q3.734-.012,7.47-.012,3.81,0,7.62.014a1.75,1.75,0,0,1,1.848,1.882c.009.327,0,.652,0,1-.006.452-.013.919.015,1.39a2.084,2.084,0,0,1-1.542,2.453l-.606.2,3.593,19.537h1.637q1.539,0,3.079,0t3.076,0m-18.615-5.7c-2.189,0-4.776,0-7.36.018-.414,0-1.375.245-1.539.949-.22.94-.379,1.871-.547,2.856-.054.318-.109.638-.167.963l-.151.854H31.413l-1.055-5.638Zm29.307,0c-.206,0-.4.015-.6.029-.083.007-.168.013-.254.018l-.569.034-1.024,5.555H68.045l-.157-.858c-.065-.354-.133-.7-.2-1.042-.154-.777-.3-1.512-.38-2.247a1.531,1.531,0,0,0-1.748-1.5h-.026c-2.756.014-5.527.016-7.875.016H51.013Zm-1.2-1.144h17L64.45,165.753H52.172Zm-36.647-.015H30.16l-2.367-12.844H15.529Zm.205-13.995H29.947V160.1H13.373Zm36.651-.045H66.6v-4.407H50.024ZM2.762,144.258c-1.007,0-1.626.095-1.657,1.961,0,.188-.007.4-.015.655a1.928,1.928,0,0,0,.421,1.458,1.957,1.957,0,0,0,1.462.474c7.846-.02,15.646-.022,22.242-.022l32.591,0q9.366,0,18.73,0c.211,0,.387,0,.541.008.128,0,.241.005.341.005a1.424,1.424,0,0,0,1.081-.341c.372-.374.371-.843.369-1.779v-.232c0-1.853-.323-2.179-2.151-2.179H46.3q-21.295,0-42.586,0c-.22,0-.41,0-.578,0-.138,0-.262,0-.372,0" transform="translate(0 -108.466)" fill="#414142"/>
        <path id="Path_311" data-name="Path 311" d="M69.574,23.744a4.952,4.952,0,0,1-4.722-3.82c-.021-.064-.044-.127-.078-.218l-.232-.634-2.379,0c-.388,0-.778,0-1.167,0-.643,0-.837-.108-.9-.17s-.156-.273-.117-.949c.264-4.58,3.519-8.038,8.5-9.023l.586-.116V1.545c0-.093,0-.186,0-.28,0-.205-.005-.4.006-.585C69.087.37,69.2,0,69.614,0c.459,0,.53.414.532.659.013,1.568.011,3.164.009,4.707,0,.611,0,3.208,0,3.208l.479.174c.409.148.811.278,1.2.4a13.561,13.561,0,0,1,2.19.846,9.347,9.347,0,0,1,5.216,8.229c.026.491-.064.644-.1.687s-.2.149-.725.157l-.305,0c-.2,0-.4,0-.6,0s-.411,0-.617,0c-.461,0-.817.011-1.155.037a1.732,1.732,0,0,0-1.366.995,5.019,5.019,0,0,1-4.735,3.65Zm-3.424-3.618a3.64,3.64,0,0,0,3.439,2.526h.041a3.69,3.69,0,0,0,3.493-2.5l.384-.99h-7.7ZM69.61,9.963c-4.147,0-8.048,3.353-8.347,7.175l-.061.784H77.952l-.012-.74c-.059-3.591-4-7.1-8.109-7.217q-.111,0-.222,0" transform="translate(-45.432 0.001)" fill="#414142"/>
        <path id="Path_312" data-name="Path 312" d="M200.024,23.746a4.81,4.81,0,0,1-4.588-3.321,1.716,1.716,0,0,0-1.69-1.377c-.081,0-.168,0-.259.013-.253.023-.526.034-.86.034-.253,0-.507-.006-.76-.012-.192,0-.383-.009-.574-.011-.569-.006-.729-.108-.771-.152s-.136-.2-.128-.745a9.6,9.6,0,0,1,7.264-8.983c.245-.061.492-.112.774-.171l.479-.1.574-.124V4.911q0-2,0-4.009c0-.9.383-.9.527-.9.176,0,.555.008.558.938q.008,2.226,0,4.451V8.846l.611.1a9.706,9.706,0,0,1,6.877,4.291,9.467,9.467,0,0,1,1.6,5,1.016,1.016,0,0,1-.129.672.991.991,0,0,1-.648.162c-.422.007-.844.009-1.268.009l-.992,0-1.016,0h-.519s-.389,1.129-.446,1.3a4.908,4.908,0,0,1-4.595,3.376Zm-3.5-3.592a3.738,3.738,0,0,0,3.492,2.5h.074a3.62,3.62,0,0,0,3.416-2.539l.326-.961h-7.713Zm3.52-10.19c-.081,0-.162,0-.243,0-4.131.13-8.068,3.639-8.1,7.22l-.007.734h16.75l-.067-.789c-.33-3.886-4.144-7.169-8.33-7.169" transform="translate(-144.228)" fill="#414142"/>
      </g>
    </g>
  </g>
</svg>
