<svg xmlns="http://www.w3.org/2000/svg" width="117" height="117" viewBox="0 0 117 117">
  <g id="Group_381" data-name="Group 381" transform="translate(-1123 -5408)">
    <path id="Path_433" data-name="Path 433" d="M58.5,0A58.5,58.5,0,1,1,0,58.5,58.5,58.5,0,0,1,58.5,0Z" transform="translate(1123 5408)" fill="#ffdbce" opacity="0"/>
    <g id="Group_346" data-name="Group 346" transform="translate(684.136 4966.204)">
      <g id="Group_341" data-name="Group 341" transform="translate(460.327 458.953)">
        <path id="Path_414" data-name="Path 414" d="M116.38,76.05q-.478,0-.958-.032A16.044,16.044,0,1,1,132.1,57.963a2.082,2.082,0,0,0,.076.324l.061.273-.008,2.955c-.06.287-.115.575-.171.863-.119.621-.243,1.263-.413,1.889A16.137,16.137,0,0,1,116.38,76.05m-.15-31.38a15.323,15.323,0,1,0,14.718,19.406c.163-.6.284-1.227.4-1.835.054-.28.108-.56.166-.838l-.034-2.92a2.918,2.918,0,0,1-.1-.432,15.409,15.409,0,0,0-14.574-13.37q-.29-.012-.578-.012" transform="translate(-57.766 -43.952)" fill="#414142"/>
        <path id="Path_415" data-name="Path 415" d="M92.776,119.256a7.847,7.847,0,0,1-7.562-5.44,9.679,9.679,0,0,1-.426-2.709c-.043-1.155-.035-2.327-.026-3.462,0-.507.008-1.012.007-1.518,0-1.045-.132-1.177-1.16-1.177H55.632l.288-44.388H86.648l-.081.427A17.743,17.743,0,0,0,87.8,71.846l.226.507-12.455,0a2,2,0,0,0-.462.023.693.693,0,0,0-.631.759.66.66,0,0,0,.611.7,4.889,4.889,0,0,0,.767.037h1.878q5.126.006,10.253-.01H88a1.521,1.521,0,0,1,1.391.739,17.014,17.014,0,0,0,10.462,7.12,1.03,1.03,0,0,1,.914,1.163q-.013,6.779-.009,13.558,0,7.333-.01,14.665a8,8,0,0,1-6.572,8.039,8.721,8.721,0,0,1-1.4.115M63.685,104.228H83.61c1.422,0,1.879.461,1.881,1.9,0,.509,0,1.017-.007,1.525-.009,1.126-.017,2.29.026,3.429a9.139,9.139,0,0,0,.389,2.508,7.2,7.2,0,0,0,8.165,4.842,7.279,7.279,0,0,0,5.967-7.33q.015-7.331.01-14.664,0-6.78.009-13.559c0-.342-.033-.385-.356-.46A17.71,17.71,0,0,1,88.8,75.006a.845.845,0,0,0-.81-.427q-5.129.023-10.258.01h-1.84a5.844,5.844,0,0,1-.916-.046,1.371,1.371,0,0,1-1.22-1.383,1.41,1.41,0,0,1,1.194-1.487,2.582,2.582,0,0,1,.636-.04l.16,0H86.923a18.35,18.35,0,0,1-1.14-10.351H56.636l-.279,42.947Zm3.364-4.791a4.215,4.215,0,0,1-4.278-4.119,4.029,4.029,0,0,1,1.25-2.927,4.329,4.329,0,0,1,3.014-1.214h.016a4.155,4.155,0,0,1,4.261,4.115,4.044,4.044,0,0,1-1.188,2.882,4.3,4.3,0,0,1-3.063,1.264Zm-.012-7.54a3.614,3.614,0,0,0-2.516,1.012,3.311,3.311,0,0,0-1.03,2.406,3.5,3.5,0,0,0,3.557,3.4h.01a3.586,3.586,0,0,0,2.554-1.051,3.33,3.33,0,0,0,.979-2.371,3.442,3.442,0,0,0-3.54-3.4h-.014Zm12.077,4.944q-1.854,0-3.708-.005a1.7,1.7,0,0,1-1.532-.824,1.253,1.253,0,0,1,.081-1.316,2.017,2.017,0,0,1,1.378-.759,20.2,20.2,0,0,1,2.095-.04c.271.005.541.009.811.009H91.572c.165,0,.329,0,.494.006a1.468,1.468,0,1,1-.043,2.926q-2.733.011-5.468,0h-7.44m-2.5-2.233c-.407,0-.815.01-1.213.046a1.3,1.3,0,0,0-.842.438.541.541,0,0,0-.047.579,1.01,1.01,0,0,0,.9.444q2.994.011,5.986,0h5.159q2.731,0,5.464,0c.265,0,.883-.074.891-.732.007-.589-.474-.734-.878-.754-.153-.007-.3-.006-.455,0H78.241c-.275,0-.548,0-.823-.009s-.535-.009-.806-.009m-9.558-6.234a4.219,4.219,0,0,1-4.283-4.107,4.033,4.033,0,0,1,1.189-2.874,4.3,4.3,0,0,1,3.067-1.278h.012a4.162,4.162,0,0,1,4.272,4.107,4.042,4.042,0,0,1-1.182,2.888,4.289,4.289,0,0,1-3.06,1.263v0Zm-.015-7.538h-.01A3.586,3.586,0,0,0,64.473,81.9a3.311,3.311,0,0,0-.981,2.363,3.5,3.5,0,0,0,3.562,3.39h.013a3.573,3.573,0,0,0,2.551-1.05,3.326,3.326,0,0,0,.973-2.376,3.45,3.45,0,0,0-3.552-3.391m24.919,4.892-.148,0h-9.73q-3.193,0-6.388,0a3.27,3.27,0,0,1-.877-.086,1.448,1.448,0,0,1,.04-2.8,3.383,3.383,0,0,1,.8-.079q8.057-.006,16.113,0a3.256,3.256,0,0,1,.645.045,1.4,1.4,0,0,1,1.213,1.459,1.414,1.414,0,0,1-1.245,1.432,2.116,2.116,0,0,1-.42.035m-.3-.724h.161a1.838,1.838,0,0,0,.412-.019c.587-.118.664-.454.667-.734a.682.682,0,0,0-.638-.747,3.1,3.1,0,0,0-.479-.03q-8.088,0-16.132,0a2.741,2.741,0,0,0-.625.057.728.728,0,0,0-.019,1.409,2.7,2.7,0,0,0,.685.059q3.193.005,6.386,0ZM67.036,77.337a4.341,4.341,0,0,1-3.02-1.244,4.01,4.01,0,0,1-.051-5.76,4.363,4.363,0,0,1,3.057-1.291h.027a4.148,4.148,0,1,1,.027,8.294Zm.013-7.573h-.023a3.635,3.635,0,0,0-2.548,1.076,3.29,3.29,0,0,0,.043,4.74,3.649,3.649,0,0,0,2.548,1.037,3.428,3.428,0,1,0-.02-6.853" transform="translate(-45.324 -48.593)" fill="#414142"/>
        <path id="Path_416" data-name="Path 416" d="M62.5,137.093q-6.409,0-12.818,0a8.022,8.022,0,0,1-8.355-8.395v-4.383H79.245v.636c0,.171,0,.336,0,.5.008.477.009.956.011,1.435,0,1.059.006,2.154.086,3.219a8.851,8.851,0,0,0,2.566,5.538,5.464,5.464,0,0,0,.5.438c.115.094.241.2.384.319l.664.569-1.256.1c-.2.018-.335.029-.471.029H75.318l-12.818,0M42.048,125.033v3.66a7.333,7.333,0,0,0,7.634,7.676q12.819.011,25.636,0h6.314c-.089-.077-.17-.153-.246-.233a9.553,9.553,0,0,1-2.763-5.981c-.081-1.09-.084-2.2-.087-3.27,0-.476,0-.95-.011-1.425,0-.142,0-.283,0-.427Z" transform="translate(-41.327 -66.407)" fill="#414142"/>
        <path id="Path_417" data-name="Path 417" d="M70.69,79.254h-.005a1.948,1.948,0,0,1-2.018-1.892,1.922,1.922,0,0,1,2-1.91,2.135,2.135,0,0,1,1.528.607,1.817,1.817,0,0,1,.54,1.326,1.964,1.964,0,0,1-2.041,1.868m0-3.08h-.019a1.219,1.219,0,0,0-1.285,1.185,1.234,1.234,0,0,0,1.3,1.175h0a1.251,1.251,0,0,0,1.321-1.162,1.1,1.1,0,0,0-.331-.8,1.393,1.393,0,0,0-.988-.394" transform="translate(-48.967 -52.754)" fill="#414142"/>
        <path id="Path_418" data-name="Path 418" d="M70.694,109.952h-.012a1.957,1.957,0,0,1-2.013-1.908,1.977,1.977,0,0,1,1.994-1.926,2.21,2.21,0,0,1,1.516.611,1.838,1.838,0,0,1,.552,1.338,2.016,2.016,0,0,1-2.037,1.885m-1.3-1.912a1.244,1.244,0,0,0,1.3,1.192h.007a1.285,1.285,0,0,0,1.316-1.177,1.123,1.123,0,0,0-.342-.817,1.423,1.423,0,0,0-1-.4,1.24,1.24,0,0,0-1.283,1.2" transform="translate(-48.967 -61.323)" fill="#414142"/>
        <path id="Path_419" data-name="Path 419" d="M70.7,94.6h-.048a1.958,1.958,0,0,1-1.979-1.94,1.977,1.977,0,0,1,2.02-1.9H70.7a2.018,2.018,0,0,1,2.034,1.9A1.844,1.844,0,0,1,72.165,94a2.1,2.1,0,0,1-1.469.6m-.007-3.116a1.256,1.256,0,0,0-1.3,1.183,1.243,1.243,0,0,0,1.275,1.211,1.4,1.4,0,0,0,.994-.391,1.132,1.132,0,0,0,.352-.816,1.287,1.287,0,0,0-1.316-1.187Z" transform="translate(-48.967 -57.034)" fill="#414142"/>
        <path id="Path_420" data-name="Path 420" d="M124.686,58.126h-3.573a3.25,3.25,0,0,1,1.213,2.208h2.36v1.082h-2.338c-.217,2.209-1.97,3.616-4.741,3.7,1.689,1.754,3.529,3.962,5.347,6.192h-2.078c-1.689-2.035-3.269-3.918-5.3-6.084V63.885h1.19c2.338,0,3.593-.974,3.746-2.469h-4.936V60.334h4.87c-.3-1.255-1.45-1.884-3.333-1.884h-1.537V57.044h9.115Z" transform="translate(-62.073 -47.61)" fill="none" stroke="#414142" stroke-miterlimit="10" stroke-width="1"/>
      </g>
    </g>
  </g>
</svg>
