<svg xmlns="http://www.w3.org/2000/svg" width="117" height="117" viewBox="0 0 117 117">
  <g id="Group_382" data-name="Group 382" transform="translate(-1152 -5717)">
    <path id="Path_434" data-name="Path 434" d="M58.5,0A58.5,58.5,0,1,1,0,58.5,58.5,58.5,0,0,1,58.5,0Z" transform="translate(1152 5717)" fill="#ffdbce" opacity="0"/>
    <g id="Group_342" data-name="Group 342" transform="translate(451.217 5265.245)">
      <path id="Path_421" data-name="Path 421" d="M299.71,137.807a1.923,1.923,0,0,1-1.426-.5c-.529-.53-.637-1.414-.33-2.7l2.393-10.042q1.456-6.1,2.906-12.2a12.784,12.784,0,0,1,3.572-6.222Q323.578,89.4,340.319,72.654l2.2-2.2q7.076-7.079,14.138-14.178a10.358,10.358,0,0,1,7.624-3.464,9.7,9.7,0,0,1,7.126,2.793c2.911,2.838,5.754,5.627,8.533,8.534,3.993,4.176,3.848,10.259-.344,14.464q-9.606,9.639-19.238,19.249l-13.721,13.711q-8.578,8.57-17.135,17.161a13.466,13.466,0,0,1-6.663,3.739q-7.126,1.672-14.245,3.367l-7.661,1.814a5.323,5.323,0,0,1-1.224.165m64.374-83.943a9.381,9.381,0,0,0-6.677,3.154q-7.053,7.107-14.14,14.181l-2.2,2.2q-16.743,16.745-33.495,33.484a11.758,11.758,0,0,0-3.292,5.717q-1.448,6.1-2.906,12.2l-2.392,10.042c-.207.866-.189,1.474.049,1.712s.819.253,1.66.054l7.66-1.816q7.122-1.689,14.249-3.367a12.45,12.45,0,0,0,6.154-3.456q8.548-8.6,17.138-17.163L359.612,97.1q9.625-9.618,19.235-19.248a9.036,9.036,0,0,0,.33-12.987c-2.768-2.9-5.6-5.677-8.507-8.508a8.677,8.677,0,0,0-6.389-2.492h-.017l-.181,0m-63.4,81.036,2.629-11.164,8.521,8.5Zm3.224-9.077-1.8,7.649,7.639-1.827Zm10.862,5.671a3.184,3.184,0,0,1-2.372-1.185c-1.545-1.621-3.162-3.231-4.725-4.787-1-.993-1.993-1.985-2.98-2.988-.085-.086-.821-.859-.666-1.576.5-2.312,1.048-4.576,1.624-6.975l.644-2.685.6.3c2.337,1.173,4.538,2.419,5.8,4.763a15.558,15.558,0,0,0,6.372,6.443,12.282,12.282,0,0,1,4.9,5.877l.28.588-.633.153c-.8.191-1.581.374-2.36.554-1.87.435-3.635.844-5.4,1.35a3.926,3.926,0,0,1-1.083.168m-7.757-18.65-.332,1.387c-.575,2.392-1.119,4.649-1.62,6.95a1.553,1.553,0,0,0,.387.61q1.477,1.5,2.972,2.98c1.567,1.561,3.189,3.175,4.744,4.807a2.042,2.042,0,0,0,2.4.731c1.791-.514,3.569-.926,5.453-1.363q.849-.2,1.71-.4a10.671,10.671,0,0,0-4.167-4.819,16.6,16.6,0,0,1-6.793-6.866c-1.019-1.891-2.741-2.98-4.751-4.018m18.841,15.415-2.718-4.318,46.289-46.285.992.921,2.625,2.466-1.5,1.5Zm-1.374-4.167,1.563,2.483,45.481-45.508-2.069-1.945Zm-2.7-1.706-.334-.152a15.514,15.514,0,0,1-8.054-8.069l-.145-.33,46.167-46.173,8.574,8.488Zm-7.273-8.318a14.43,14.43,0,0,0,7.047,7.049l44.934-44.963-7.07-7Zm-2.917-1.675-4.185-2.583,47.229-47.178L357.9,66.07Zm-2.491-2.779,2.334,1.44,44.993-45-1.81-1.9Zm65.413-29.535L355.538,61.034l.428-.37c.5-.434.987-.888,1.474-1.345a23.093,23.093,0,0,1,3.572-2.922,6.955,6.955,0,0,1,8.44,1.1c3.383,3.255,6.068,5.934,8.452,8.433a7.41,7.41,0,0,1-.232,10.747c-.647.652-1.266,1.332-1.89,2.02-.3.325-.592.65-.893.977Zm-17.43-18.993,17.4,17.466.515-.566c.636-.7,1.264-1.389,1.92-2.051,2.764-2.789,2.852-6.516.22-9.274-2.374-2.487-5.05-5.157-8.421-8.4a5.9,5.9,0,0,0-7.154-.965,22.189,22.189,0,0,0-3.4,2.794c-.358.334-.717.669-1.08,1" transform="translate(419 415.001)" fill="#414142"/>
    </g>
  </g>
</svg>
