<svg xmlns="http://www.w3.org/2000/svg" width="117" height="117" viewBox="0 0 117 117">
  <g id="Group_383" data-name="Group 383" transform="translate(-304.5)">
    <g id="Group_356" data-name="Group 356" transform="translate(-595.5 -5872)">
      <circle id="Ellipse_5" data-name="Ellipse 5" cx="58.5" cy="58.5" r="58.5" transform="translate(900 5872)" fill="#efefef" opacity="0"/>
      <g id="Group_349" data-name="Group 349" transform="translate(-4994 5418)">
        <g id="Group_348" data-name="Group 348">
          <g id="Group_343" data-name="Group 343" transform="translate(4958 4.066)">
            <path id="Path_422" data-name="Path 422" d="M556.16,135.515a6.63,6.63,0,0,1-4.731-1.94c-1.842-1.774-3.06-4.116-3.95-7.595-.5-1.949-.838-3.988-1.166-5.959-.1-.584-.194-1.167-.295-1.749-.425-2.448-1.769-2.713-2.328-2.713a3.127,3.127,0,0,0-1.971.865,35.547,35.547,0,0,0-3.483,3.55c-.434.487-.884.99-1.334,1.471a3.465,3.465,0,0,0-.31.392c-1.9-1.728-2.528-3.991-2.017-7.243l.1-.66H524.107V103.729h21.522l-.049-.617a20.274,20.274,0,0,1,5.376-15.633,21.572,21.572,0,0,1,15.49-7.025c.1,0,.2,0,.3,0a21.418,21.418,0,0,1,15.357,6.96,20.839,20.839,0,0,1,5.444,15.705l-.044.611h13.572q16,0,31.99,0c.268,0,.539.022.824.047v10.172l-1.045-.009c-1.139-.01-2.316-.021-3.476-.021l-20.593,0H588.3L588.031,115a12.184,12.184,0,0,0,6,1.211c.446,0,.9-.008,1.336-.016.294-.005.594-.01.893-.013a8.025,8.025,0,0,1-.18,1.109l-1.129-.129c-.641-.073-1.24-.136-1.82-.2-1.26-.133-2.349-.249-3.447-.418a5.261,5.261,0,0,1-3.368-1.634,2.185,2.185,0,0,0-3.744.033,20.088,20.088,0,0,1-11.608,6.977,24.474,24.474,0,0,1-4.68.471c-6.033,0-11.348-2.542-15.8-7.557l-.1-.121a1.676,1.676,0,0,0-1.084-.737c-.53-.03-1.092-.044-1.819-.044-.336,0-.673,0-1.01.006s-.667.005-1,.005h-.354l-.486.983.367.286c1.537,1.194,1.853,2.909,1.965,4.583a22.265,22.265,0,0,0,.487,3.069,23.863,23.863,0,0,0,3.281,8.759,6.651,6.651,0,0,0,4.041,2.984l.739.178-.036-.76c-.019-.417-.044-.829-.067-1.228-.053-.888-.1-1.727-.1-2.569a7.492,7.492,0,0,1,1.147-4.509,1.959,1.959,0,0,1,1.532-.97,2.346,2.346,0,0,1,1.407.591q.549.432,1.1.866c1.876,1.483,3.815,3.016,5.815,4.406,2.493,1.731,5.526,3.549,9.122,3.9.152.015.307.022.474.022a10.82,10.82,0,0,0,1.387-.118c.263-.034.512-.066.757-.086l1.061-.086-.659-.836c-.427-.541-.852-1.058-1.264-1.558a34.144,34.144,0,0,1-2.6-3.432,5.53,5.53,0,0,1-.646-2.87c.011-1.3,1.049-1.608,1.917-1.634q.723-.021,1.447-.039c2.307-.059,4.693-.121,7.028-.385,2.746-.312,5.9-.891,8.506-2.829A11.1,11.1,0,0,0,594.506,119c.25-.286.509-.582.79-.878l.777-.819c-.522,2.173-1.975,3.771-4.472,4.953-3.659,1.732-7.626,2.146-11.368,2.335-.545.028-1.132.04-1.9.04l-.934,0c-.314,0-.627,0-.941,0h-.2a1.751,1.751,0,0,0-1.581.645,1.473,1.473,0,0,0,.019,1.461,17.009,17.009,0,0,0,2.363,3.858,25.073,25.073,0,0,0,2.519,2.49c.23.207.465.418.7.632a5.993,5.993,0,0,1-4.175,1.581,10.159,10.159,0,0,1-2.7-.4,30.638,30.638,0,0,1-9.949-5.371c-1.164-.863-2.269-1.757-3.439-2.7-.515-.416-1.048-.847-1.58-1.27l-.332-.263-.348.24a4.041,4.041,0,0,0-1.638,3.626c.007,1.607.1,3.181.193,4.848.028.5.057,1.008.084,1.522-.074,0-.149,0-.222,0m-4.476-20.594a19.347,19.347,0,0,0,14.886,6.726h0a20.094,20.094,0,0,0,15.005-6.705l.869-.954H550.915Zm-12.321-1c-.77,0-1.783,0-2.8.018-.354.006-1.1.25-1.216.787A6.668,6.668,0,0,0,536,119.96l.4.633.5-.555c.279-.307.546-.613.8-.909.573-.655,1.113-1.273,1.705-1.827s1.24-1.048,1.934-1.579c.326-.248.662-.5,1.009-.78l1.282-1.018H540.65l-1.287,0m-14.5-.822H633.1v-8.6H524.864Zm43.852-9.383c.551,0,1,.009,1.418.029.047,0,.093,0,.137,0a1.521,1.521,0,0,0,1.582-1.429,5.41,5.41,0,0,0-2.342-5.349,5.455,5.455,0,0,0-5.934.033,5.413,5.413,0,0,0-2.26,5.5,1.378,1.378,0,0,0,1.443,1.239h.072c.456-.014.948-.02,1.55-.02.379,0,.759,0,1.138,0,.358,0,.717.005,1.075.005s.712,0,1.067-.008.7-.007,1.054-.007m-2.2-22.464a22.373,22.373,0,0,0-2.879.188,20.335,20.335,0,0,0-17.317,20.8,1.371,1.371,0,0,0,1.566,1.505h.034c2.021-.016,4-.018,5.676-.018h5.693a4.65,4.65,0,0,0,.571-.048c.072-.009.143-.018.213-.025l.5-.05.01-.507c.095-4.991,1.945-7.512,5.654-7.709.12-.006.24-.009.358-.009a5.869,5.869,0,0,1,3.854,1.417c1.781,1.489,2.452,3.524,2.051,6.221l-.1.654H587l-.062-.626c-.062-.63-.1-1.269-.144-1.886a25.181,25.181,0,0,0-.479-4.022,20.041,20.041,0,0,0-19.794-15.886" transform="translate(419 415.001)" fill="#414142"/>
            <path id="Path_423" data-name="Path 423" d="M593.361,101.764c-.142-8.63-3.458-15.687-9.862-20.982a25.959,25.959,0,0,0-16.97-6.067c-.464,0-.937.011-1.407.032A26.837,26.837,0,0,0,547.63,82.6a26.545,26.545,0,0,0-5.76,8.58,28.017,28.017,0,0,0-2.128,10.564H527.008a40.119,40.119,0,0,1,3.329-16.15,42.072,42.072,0,0,1,10.156-13.829l.722-.664-.935-.3c-1.814-.581-2.728-1.6-2.877-3.213a5.076,5.076,0,0,1,1.378-3.843,5.375,5.375,0,0,1,3.924-1.821,4.554,4.554,0,0,1,.9.089,3.384,3.384,0,0,1,2.687,3.453c0,.16-.01.327-.025.56-.009.132-.02.281-.029.456l-.053.97.873-.426c.159-.078.307-.148.446-.215.282-.135.526-.252.772-.381a38.944,38.944,0,0,1,18.143-4.52,41.263,41.263,0,0,1,4.264.224,5.354,5.354,0,0,0,.557.028,5.759,5.759,0,0,0,2.01-.36c7.548-2.9,15.212-5.873,22.623-8.75l6.336-2.458c.1-.037.194-.074.3-.111-.255,3.647,1.367,6.541,3.348,9.644.261.41.536.817.8,1.211a27.621,27.621,0,0,1,1.5,2.4l.4.747a50.421,50.421,0,0,1,2.786,5.78c1.186,3.128,1.071,6.486.832,9.939a46.252,46.252,0,0,1-2.573,12.1c-.042.12-.09.241-.145.372-.262-.334-.523-.664-.782-.993-1.333-1.69-2.591-3.286-3.82-4.932a1.967,1.967,0,0,1-.212-1.156c.18-2.763.387-5.3.633-7.753a2.426,2.426,0,0,0-1.042-2.484,20.133,20.133,0,0,1-5.439-7.022c-.868-1.66-1.647-3.34-2.471-5.119-.362-.78-.736-1.586-1.119-2.394l-.273-.574-9.87,6.068.794.486A42.526,42.526,0,0,1,600.926,81.78a42.165,42.165,0,0,1,5.271,19.984Zm-59.906-.691c1.589,0,2.876.01,4.051.032h.071c1.309,0,1.565-.785,1.647-1.633a32.182,32.182,0,0,1,.643-4.411,27.342,27.342,0,0,1,9.807-15.241,27.418,27.418,0,0,1,43.924,16.9c.147.853.257,1.734.364,2.587.051.407.1.814.157,1.222l.067.494h11.15l-.01-.58a38.25,38.25,0,0,0-11.5-26.7,38.6,38.6,0,0,0-27.212-11.081c-.271,0-.545,0-.816.008a38.817,38.817,0,0,0-15.929,3.675A38.081,38.081,0,0,0,537.9,75.262a39.975,39.975,0,0,0-7.5,12.075,35.412,35.412,0,0,0-2.526,13.182l.006.564h.565q1.254,0,2.508,0t2.507-.005m72.667-25.356a6.013,6.013,0,0,1-.008.676q-.141,1.623-.289,3.244c-.156,1.729-.317,3.517-.462,5.277l0,.041a2.552,2.552,0,0,0,.24,1.678c.637.908,1.341,1.781,2.021,2.625q.384.475.763.953l.216.272,1.094-.213.072-.381c.159-.849.335-1.714.5-2.55.381-1.879.775-3.823,1.027-5.762.511-3.946.755-8.572-1.321-12.962a62.116,62.116,0,0,0-3.595-6.284q-.274-.44-.548-.879-.2-.321-.4-.642c-1.692-2.707-3.291-5.263-3.657-8.514l-.083-.736L574.248,62.215l1.382.529.562.217c.334.129.623.24.912.346.578.213,1.166.424,1.736.628,1.358.488,2.763.992,4.114,1.547a2.863,2.863,0,0,0,1.1.252,2.359,2.359,0,0,0,1.294-.415c2.255-1.427,4.571-2.846,6.811-4.218l2.112-1.3c.357-.22.715-.433,1.041-.626.4.856.8,1.718,1.183,2.556,1.08,2.346,2.2,4.772,3.421,7.087,1.348,2.545,3.047,5.369,6.2,6.876v.018M542.755,62.572a3.571,3.571,0,0,0-.841.1,4.828,4.828,0,0,0-3.751,3.753,2.809,2.809,0,0,0,2.868,3.629c.06,0,.121,0,.183,0a4.829,4.829,0,0,0,4.35-4.463,3.008,3.008,0,0,0-.806-2.208,2.762,2.762,0,0,0-2-.811" transform="translate(419 415.001)" fill="#414142"/>
          </g>
        </g>
      </g>
    </g>
  </g>
</svg>
