<svg xmlns="http://www.w3.org/2000/svg" width="117" height="117" viewBox="0 0 117 117">
  <g id="Group_384" data-name="Group 384" transform="translate(-631 -5703)">
    <circle id="Ellipse_6" data-name="Ellipse 6" cx="58.5" cy="58.5" r="58.5" transform="translate(631 5703)" fill="#efefef" opacity="0"/>
    <g id="Group_344" data-name="Group 344" transform="translate(-551 5253.599)">
      <path id="Path_424" data-name="Path 424" d="M794.712,106.1h-18.3c-1.046,0-2.093-.013-3.138-.033a2.139,2.139,0,0,1-.848-.214l-1.03-.462,1.034-.452a2.705,2.705,0,0,1,.273-.117q4.072-1.4,8.151-2.805c.5-.171.5-.171.5-.684V97.322q0-6.01-.008-12.02a2.089,2.089,0,0,1,1.3-2.045,6.771,6.771,0,0,1,2.521-.524l.53-.033V96.108a.493.493,0,0,0,.128.371.309.309,0,0,0,.256.056.3.3,0,0,0,.268-.288c0-.065,0-.129,0-.193V93.779q0-5.469,0-10.937a1.766,1.766,0,0,1,.1-.654,40.244,40.244,0,0,1,9.317-14.24,37.325,37.325,0,0,1,17.4-9.622,40.661,40.661,0,0,1,12.268-1.054A44.449,44.449,0,0,1,845.1,63.2,40.015,40.015,0,0,1,860.459,78.75a39.349,39.349,0,0,1,4.077,11.377c.139.708.254,1.421.373,2.154l.274,1.649-4.664.012q-3.645.012-7.288.02-4.57.006-9.14,0l-4.9-.009h0c-.471,0-.472.214-.473.329a.286.286,0,0,0,.075.214.528.528,0,0,0,.374.118q8.88.022,17.761,0l10.685-.035.275,7.39H833.96a8.439,8.439,0,0,0-2.391.307,4.833,4.833,0,0,0-2.257,1.488l-.126.139c-.131.143-.262.287-.384.438a4.619,4.619,0,0,1-3.388,1.708c-.344.027-.689.043-1.033.043l-29.669,0m-19.726-1.009c.475.005.951.008,1.425.008q23.984,0,47.97,0c.318,0,.639-.016.957-.04a3.61,3.61,0,0,0,2.685-1.338c.134-.167.279-.326.423-.484l.122-.135a5.79,5.79,0,0,1,2.72-1.778,9.339,9.339,0,0,1,2.672-.348h32.892l-.2-5.39-9.718.035q-8.886.029-17.768,0a1.5,1.5,0,0,1-1.081-.415,1.287,1.287,0,0,1-.365-.922,1.321,1.321,0,0,1,1.473-1.324h0l4.9.009q4.567,0,9.138,0,3.642-.006,7.286-.02L864,92.931l-.08-.489c-.117-.724-.23-1.426-.367-2.123a38.367,38.367,0,0,0-3.973-11.088A39.026,39.026,0,0,0,844.6,64.069a43.485,43.485,0,0,0-19.219-5.8A39.892,39.892,0,0,0,813.416,59.3a36.345,36.345,0,0,0-16.944,9.368,39.223,39.223,0,0,0-9.082,13.888.813.813,0,0,0-.036.289q0,5.47,0,10.936v2.187c0,.168,0,.258,0,.347a1.3,1.3,0,0,1-1.12,1.214,1.317,1.317,0,0,1-1.056-.291,1.452,1.452,0,0,1-.474-1.127V83.772a5.011,5.011,0,0,0-1.633.393,1.1,1.1,0,0,0-.721,1.135q.015,6.01.008,12.022v4.006a1.416,1.416,0,0,1-1.172,1.629q-3.1,1.063-6.192,2.13m37.925-4.844H801.057a1.358,1.358,0,0,1-1.49-1.633,11.131,11.131,0,0,1,9.558-9.978,10.369,10.369,0,0,1,9.022,3.192,11.7,11.7,0,0,1,3.338,6.779,1.419,1.419,0,0,1-.292,1.178,1.45,1.45,0,0,1-1.152.462Zm-2.319-10.709a10.366,10.366,0,0,0-1.338.089,10.121,10.121,0,0,0-8.69,9.075.4.4,0,0,0,.493.544h18.984a.534.534,0,0,0,.4-.118.517.517,0,0,0,.057-.38,10.719,10.719,0,0,0-3.055-6.213,9.462,9.462,0,0,0-6.848-3m45.986-7.72a1.236,1.236,0,0,1-.63-.171,1.686,1.686,0,0,1-.565-.565,34.989,34.989,0,0,0-7.922-9.024A39.848,39.848,0,0,0,831.1,64.17c-.087-.019-.176-.035-.264-.052-.142-.025-.283-.05-.423-.087a1.3,1.3,0,0,1-.975-1.454,1.352,1.352,0,0,1,1.481-1.151h.055l.531.108c.408.081.871.172,1.328.29a41.52,41.52,0,0,1,18.851,10.383,37.553,37.553,0,0,1,5.972,7.492,1.347,1.347,0,0,1-.1,1.672,1.323,1.323,0,0,1-.982.444m-25.7-19.387c-.417.019-.442.212-.45.277a.307.307,0,0,0,.239.36c.112.029.228.05.344.071s.2.036.3.059a40.821,40.821,0,0,1,16.771,8.081,35.988,35.988,0,0,1,8.148,9.282.7.7,0,0,0,.218.224.293.293,0,0,0,.361-.078c.046-.051.168-.187-.013-.483a36.478,36.478,0,0,0-5.813-7.293,40.537,40.537,0,0,0-18.4-10.136c-.438-.112-.884-.2-1.274-.276Z" transform="translate(419 415.001)" fill="#414142"/>
      <path id="Path_425" data-name="Path 425" d="M858.81,128.813a1.5,1.5,0,0,1-.449-.075,48.118,48.118,0,0,1-14.642-7.618,56.132,56.132,0,0,1-14.162-15.669.838.838,0,0,1,.082-1.061,4.573,4.573,0,0,1,3.513-1.721c.43-.016.863-.012,1.3-.008h.116l.942-.036c.466,0,.937,0,1.407.007a1,1,0,0,1,.7.324,44.286,44.286,0,0,0,15.539,11.484,80.7,80.7,0,0,0,10.55,3.888.873.873,0,0,1,.7.993l-.063.516a9.918,9.918,0,0,1-.27,1.6,15.08,15.08,0,0,1-3.059,5.78,8.362,8.362,0,0,1-1.151,1.052l-.367.3a1.044,1.044,0,0,1-.687.248m-28.364-23.829a55.11,55.11,0,0,0,13.875,15.337,47.136,47.136,0,0,0,14.338,7.463c.157.05.184.024.2.013l.383-.311a7.721,7.721,0,0,0,1.02-.924,14.11,14.11,0,0,0,2.854-5.4,8.9,8.9,0,0,0,.24-1.437c.017-.145.033-.291.052-.436a82.5,82.5,0,0,1-10.667-3.939,45.26,45.26,0,0,1-15.88-11.741c-.424.015-.879.016-1.335.018v.039l-1.085,0c-.414,0-.83-.008-1.244.008a3.563,3.563,0,0,0-2.746,1.315" transform="translate(419 415.001)" fill="#414142"/>
      <path id="Path_426" data-name="Path 426" d="M819.783,98.555H801.288l.078-.568a9.332,9.332,0,0,1,8.651-7.776c4.987-.316,8.819,3.694,9.644,7.744Zm-17.319-1h16.07c-.973-3.417-4.265-6.593-8.455-6.346a8.477,8.477,0,0,0-7.615,6.346" transform="translate(419 415.001)" fill="#414142"/>
      <path id="Path_427" data-name="Path 427" d="M847.626,120.264h-.051a2.783,2.783,0,0,1-1.971-.862,2.859,2.859,0,0,1,2-4.829h.041a2.779,2.779,0,0,1,1.961.86,2.848,2.848,0,0,1-1.982,4.831m-.021-4.691a1.859,1.859,0,0,0-1.278,3.138,1.79,1.79,0,0,0,1.267.553,1.846,1.846,0,0,0,1.293-3.136,1.778,1.778,0,0,0-1.257-.555Z" transform="translate(419 415.001)" fill="#414142"/>
      <path id="Path_428" data-name="Path 428" d="M855.648,123.26a1.671,1.671,0,0,1-1.643-1.6,1.61,1.61,0,0,1,.458-1.16,1.634,1.634,0,0,1,1.164-.5h.019a1.6,1.6,0,0,1,1.124.465,1.638,1.638,0,0,1-1.115,2.8Zm0-2.264h-.006a.639.639,0,0,0-.457.2.612.612,0,0,0-.177.442.661.661,0,0,0,.642.623h0a.609.609,0,0,0,.421-.192.638.638,0,0,0,.191-.447h0a.624.624,0,0,0-.192-.445.605.605,0,0,0-.425-.179" transform="translate(419 415.001)" fill="#414142"/>
    </g>
  </g>
</svg>
