<svg xmlns="http://www.w3.org/2000/svg" width="117" height="117" viewBox="0 0 117 117">
  <g id="Group_387" data-name="Group 387" transform="translate(-663 -5408)">
    <g id="Group_385" data-name="Group 385">
      <g id="Group_386" data-name="Group 386">
        <circle id="Ellipse_2" data-name="Ellipse 2" cx="58.5" cy="58.5" r="58.5" transform="translate(663 5408)" fill="#efefef" opacity="0"/>
      </g>
    </g>
    <g id="Group_345" data-name="Group 345" transform="translate(-766.156 4963.657)">
      <path id="Path_429" data-name="Path 429" d="M1040.717,114.584a20.862,20.862,0,0,1-13.8-5.14,22.156,22.156,0,0,1-7.674-15.976,21.24,21.24,0,0,1,6.287-15.792A21.583,21.583,0,0,1,1060.874,85a1.991,1.991,0,0,0,2.294,1.511c13.841-.055,27.336-.049,40.114.018a4.985,4.985,0,0,1,2.941,1.224c1.133.975,2.162,2.034,3.253,3.155.445.458.9.925,1.368,1.4l.312.311-.27.348c-.364.471-.708.929-1.043,1.373-.815,1.084-1.585,2.108-2.44,3.056a3.561,3.561,0,0,1-2.245,1.036c-.841.061-1.692.047-2.512.032s-1.644-.031-2.448.031c-2.721.213-4.861-.175-6.457-2.751a1.748,1.748,0,0,0-1.412-.936,2.543,2.543,0,0,0-2.023,1.2c-.2.274-.4.551-.63.88l-.707.995-1.152-1.155c-.49-.494-.959-.965-1.435-1.43a2.778,2.778,0,0,0-2.213-.967,1.811,1.811,0,0,0-1.282,1.105c-1.63,3.258-4.37,3.277-7.041,3.018a3.242,3.242,0,0,1-1.81-1.083,7.333,7.333,0,0,1-.8-1.145,7.4,7.4,0,0,0-.613-.908,2.275,2.275,0,0,0-1.937-.879,1.168,1.168,0,0,0-.945.705c-1.693,3.676-4.8,3.511-7.563,3.328-.435.795-.841,1.593-1.242,2.38a34.08,34.08,0,0,1-3.115,5.317,21.538,21.538,0,0,1-15,8.317q-1.055.1-2.106.1m.049-42.243a20.559,20.559,0,0,0-20.525,21.095,21.162,21.162,0,0,0,7.337,15.258,19.959,19.959,0,0,0,15.147,4.792,20.539,20.539,0,0,0,14.3-7.927,33.52,33.52,0,0,0,3.019-5.165c.4-.782.8-1.572,1.23-2.36l-.026-.04.158-.264c.052-.09.184-.3.723-.268l.623-.05-.047.087c2.582.153,4.8.108,6.126-2.778a2.152,2.152,0,0,1,1.723-1.278,3.289,3.289,0,0,1,2.837,1.229,8.513,8.513,0,0,1,.7,1.029,6.457,6.457,0,0,0,.689,1,2.2,2.2,0,0,0,1.163.757c2.509.244,4.7.228,6.051-2.469a2.751,2.751,0,0,1,2.01-1.643,3.663,3.663,0,0,1,3.078,1.237c.479.468.951.943,1.445,1.44l.314.315.02-.027c.236-.335.435-.616.639-.895a3.424,3.424,0,0,1,2.87-1.609,2.732,2.732,0,0,1,2.221,1.407c1.336,2.155,3.113,2.463,5.53,2.283.853-.066,1.712-.051,2.544-.035.8.015,1.624.03,2.419-.03a2.615,2.615,0,0,0,1.578-.708c.825-.915,1.582-1.922,2.383-2.986.254-.338.514-.684.784-1.037-.365-.368-.719-.732-1.07-1.092-1.073-1.106-2.088-2.149-3.187-3.095a3.938,3.938,0,0,0-2.3-.982c-12.773-.067-26.265-.073-40.1-.018a2.9,2.9,0,0,1-3.229-2.147,20.392,20.392,0,0,0-14.913-12.579,20.911,20.911,0,0,0-4.264-.442" transform="translate(419 415.001)" fill="#414142"/>
      <path id="Path_430" data-name="Path 430" d="M1032.6,97.968h-.044a5.039,5.039,0,0,1-3.535-1.526,4.969,4.969,0,0,1,7.038-7.016,5,5,0,0,1,1.5,3.561,5.014,5.014,0,0,1-4.963,4.981m-.062-9.005a3.961,3.961,0,0,0-2.808,6.774,4.043,4.043,0,0,0,2.835,1.231,3.816,3.816,0,0,0,2.821-1.174,3.935,3.935,0,0,0,1.177-2.807,4.067,4.067,0,0,0-4.025-4.024" transform="translate(419 415.001)" fill="#414142"/>
    </g>
  </g>
</svg>
