<svg xmlns="http://www.w3.org/2000/svg" width="128.143" height="89.366" viewBox="0 0 128.143 89.366">
  <g id="Group_338" data-name="Group 338" transform="translate(-484.465 -6688.526)">
    <path id="Path_431" data-name="Path 431" d="M83.973,88.391H31.22c1.143-17.724.579-35.081,3.8-51.705,3.344-17.26,16.3-27.963,32.519-34.722,8.7-3.622,14.39-2.984,15.883,8.374C73.5,16.27,64.158,23.313,64.024,37.717H83.973Z" transform="translate(528.134 6689.001)" fill="none" stroke="#414142" stroke-width="1"/>
    <path id="Path_432" data-name="Path 432" d="M52.741,10.357C38.08,19.593,35.067,23.863,33.626,37.793h20.31V88.281H0C1.181,71.053.71,54.053,3.908,37.772,7.378,20.119,20.189,8.847,36.879,1.931c8.788-3.642,14.43-2.808,15.862,8.426" transform="translate(485 6689.001)" fill="none" stroke="#414142" stroke-width="1"/>
  </g>
</svg>
