<svg xmlns="http://www.w3.org/2000/svg" xmlns:xlink="http://www.w3.org/1999/xlink" width="186" height="55.011" viewBox="0 0 186 55.011">
  <defs>
    <clipPath id="clip-path">
      <rect id="Rectangle_4" data-name="Rectangle 4" width="186" height="55.011" fill="none"/>
    </clipPath>
  </defs>
  <g id="Group_2" data-name="Group 2" transform="translate(0 0)">
    <g id="Group_1" data-name="Group 1" transform="translate(0 0)" clip-path="url(#clip-path)">
      <path id="Path_1" data-name="Path 1" d="M110.755,17.931a9.181,9.181,0,0,0-4.627-5.091A20.92,20.92,0,0,0,97.24,11.3a20.632,20.632,0,0,0-7.255,1.11,9.411,9.411,0,0,0-4.6,3.581V0h-6.5a4.059,4.059,0,0,0-4.059,4.06V43.206H85.387V39.566a9.2,9.2,0,0,0,4.537,3.518A20.709,20.709,0,0,0,97.24,44.2a20.936,20.936,0,0,0,8.889-1.543,9.181,9.181,0,0,0,4.627-5.1,27.323,27.323,0,0,0,1.421-9.845,27.111,27.111,0,0,0-1.421-9.783m-10.679,16.05q-1.851,1.755-6.542,1.756-3.953,0-5.894-1.48t-2.254-5V26.233q.307-3.515,2.284-5a9.674,9.674,0,0,1,5.865-1.484,13.471,13.471,0,0,1,5,.739,4.782,4.782,0,0,1,2.594,2.471,11.483,11.483,0,0,1,.8,4.752q0,4.507-1.854,6.268" transform="translate(-5.139 0)" fill="#fff"/>
      <path id="Path_2" data-name="Path 2" d="M152.989,17.714a8.528,8.528,0,0,0-4.228-4.874,18.427,18.427,0,0,0-8.148-1.485,16.521,16.521,0,0,0-7.931,1.637,9.792,9.792,0,0,0-4.414,5.278V4.06A4.06,4.06,0,0,0,124.207,0h-6.5V43.206h10.556V26.79q.061-3.768,1.884-5.431t5.835-1.667q4.255,0,5.924,1.6t1.667,5.742v16.17h10.556V27.036a25.95,25.95,0,0,0-1.144-9.323" transform="translate(-8.084 0)" fill="#fff"/>
      <path id="Path_3" data-name="Path 3" d="M39.371,23.739V40.154a5.685,5.685,0,0,1-5.686,5.685H0l0-22.1Z" transform="translate(0 -1.63)" fill="#f15b25"/>
      <path id="Path_4" data-name="Path 4" d="M58.725,5.694V22.111H40.648L18.838.838,18.61.617a1.559,1.559,0,0,1,.228-.194A2.056,2.056,0,0,1,20.071.012H53.043a5.681,5.681,0,0,1,5.682,5.682" transform="translate(-1.278 -0.001)" fill="#f15b25"/>
      <path id="Path_5" data-name="Path 5" d="M17.56.454V.868l-.015,21.272V23.5H0V17.981L17.332.648A1.61,1.61,0,0,1,17.56.454" transform="translate(0 -0.031)" fill="#f15b25"/>
      <path id="Path_6" data-name="Path 6" d="M195.611,28.715a9.961,9.961,0,0,0-1.179-2.261,8.18,8.18,0,0,0-3.05-2.613A7.378,7.378,0,0,0,186,23.25l10.749-12.416h-12.9L170.888,25.717V4.444A4.05,4.05,0,0,0,168.413.707h-8.081V43.588h10.556v-5.8a9.082,9.082,0,0,1,.908-4.171,4,4,0,0,1,.221-.363,4.57,4.57,0,0,1,.755-.9q1.822-1.671,5.835-1.667,4.255,0,5.924,1.6A5.268,5.268,0,0,1,185.9,34.99a13.351,13.351,0,0,1,.3,3.046v5.552h10.556V38.036a25.968,25.968,0,0,0-1.143-9.322" transform="translate(-11.01 -0.049)" fill="#fff"/>
      <rect id="Rectangle_2" data-name="Rectangle 2" width="0.737" height="6.528" transform="translate(127.655 48.372)" fill="#fff"/>
      <path id="Path_7" data-name="Path 7" d="M140.911,51.939h.69l4.113,5.231V51.939h.718v6.528h-.588l-4.215-5.352v5.352h-.718Z" transform="translate(-9.677 -3.567)" fill="#fff"/>
      <path id="Path_8" data-name="Path 8" d="M151.512,52.62H149.32v-.681h5.129v.681h-2.19v5.847h-.746Z" transform="translate(-10.254 -3.567)" fill="#fff"/>
      <path id="Path_9" data-name="Path 9" d="M157.309,51.939h4.718v.671h-3.981v2.229h3.562v.671h-3.562v2.285h4.028v.671h-4.765Z" transform="translate(-10.803 -3.567)" fill="#fff"/>
      <path id="Path_10" data-name="Path 10" d="M165.017,51.938h2.807a2.578,2.578,0,0,1,1.856.653,1.807,1.807,0,0,1,.5,1.287V53.9a1.911,1.911,0,0,1-1.771,1.9l2.005,2.666h-.905l-1.892-2.537h-1.865v2.537h-.737Zm2.742,3.329c.98,0,1.678-.5,1.678-1.343v-.019c0-.8-.615-1.287-1.669-1.287h-2.014v2.649Z" transform="translate(-11.332 -3.567)" fill="#fff"/>
      <rect id="Rectangle_3" data-name="Rectangle 3" width="0.737" height="6.528" transform="translate(161.423 48.372)" fill="#fff"/>
      <path id="Path_11" data-name="Path 11" d="M176.86,55.213v-.019a3.329,3.329,0,1,1,6.658-.019v.019a3.329,3.329,0,1,1-6.658.019m5.893,0v-.019a2.6,2.6,0,0,0-2.573-2.7,2.564,2.564,0,0,0-2.556,2.677v.019a2.6,2.6,0,0,0,2.573,2.7,2.564,2.564,0,0,0,2.556-2.677" transform="translate(-12.145 -3.559)" fill="#fff"/>
      <path id="Path_12" data-name="Path 12" d="M186.68,51.938h2.807a2.578,2.578,0,0,1,1.856.653,1.811,1.811,0,0,1,.5,1.287V53.9a1.911,1.911,0,0,1-1.771,1.9l2.005,2.666h-.905l-1.892-2.537h-1.865v2.537h-.737Zm2.742,3.329c.979,0,1.678-.5,1.678-1.343v-.019c0-.8-.616-1.287-1.669-1.287h-2.014v2.649Z" transform="translate(-12.82 -3.567)" fill="#fff"/>
      <path id="Path_13" data-name="Path 13" d="M194.458,57.509l.457-.541a3.106,3.106,0,0,0,2.238.923c.876,0,1.455-.466,1.455-1.109v-.019c0-.606-.327-.952-1.7-1.241-1.5-.326-2.191-.811-2.191-1.883v-.02a1.927,1.927,0,0,1,2.145-1.781,3.4,3.4,0,0,1,2.294.8l-.428.569a2.865,2.865,0,0,0-1.884-.709c-.848,0-1.39.467-1.39,1.053v.019c0,.616.336.961,1.772,1.268,1.455.318,2.126.848,2.126,1.847v.019c0,1.119-.933,1.847-2.229,1.847a3.82,3.82,0,0,1-2.667-1.045" transform="translate(-13.354 -3.56)" fill="#fff"/>
    </g>
  </g>
</svg>
